<?xml version="1.0" standalone="no"?>
<!DOCTYPE svg PUBLIC "-//W3C//DTD SVG 1.1//EN" "http://www.w3.org/Graphics/SVG/1.1/DTD/svg11.dtd" >
<svg>
<metadata>
Created by FontForge 20110222 at Thu Jun 26 05:20:20 2014
 By Orthosie Webhosting
</metadata>
<defs>
<font id="TianshiYantiYanti" horiz-adv-x="1024" >
  <font-face 
    font-family="TianshiYantiYanti"
    font-weight="400"
    font-stretch="normal"
    units-per-em="1024"
    panose-1="2 1 6 0 3 1 1 1 1 1"
    ascent="881"
    descent="-143"
    x-height="690"
    cap-height="905.5"
    bbox="-32.8929 -54 1057.36 1088"
    underline-thickness="40"
    underline-position="-61"
    unicode-range="U+002C-FF0C"
  />
<missing-glyph 
 />
    <glyph glyph-name=".notdef" 
 />
    <glyph glyph-name=".notdef" 
 />
    <glyph glyph-name=".null" horiz-adv-x="0" 
 />
    <glyph glyph-name="nonmarkingreturn" horiz-adv-x="341" 
 />
    <glyph glyph-name="comma" unicode="," horiz-adv-x="512" 
d="M249 369q-26 1 -46 -22.5t-18 -53.5q3 -51 63 -74q1 -46 -18.5 -65.5t-59.5 -24.5q-7 0 0 -7q43 -20 78 -6t63 54q33 46 35 92t-24.5 75.5t-72.5 31.5z" />
    <glyph glyph-name="six" unicode="6" horiz-adv-x="512" 
d="M478 732q0 59 -53 117.5t-118 55.5q-81 -4 -145.5 -66.5t-97 -154t-32.5 -189.5q0 -157 61.5 -264.5t180.5 -111.5q93 -3 152.5 81.5t59.5 203.5q0 99 -52 178t-133 80q-84 3 -152 -62q6 38 21.5 82t39.5 85.5t53 54.5t63 -10q-5 -50 34 -97t80 -27q36 17 38 44zM143 446
q27 3 41 33q40 94 95 95q43 0 68.5 -34.5t31 -83.5t-1.5 -99.5t-24 -84.5q-31 -60 -88 -55t-89 68q-29 58 -33 161z" />
    <glyph glyph-name="A" unicode="A" horiz-adv-x="512" 
d="M313 377q11 -38 18.5 -95.5t20.5 -90.5t48 -59q27 -21 41.5 -28t28 -1.5t25.5 29.5q18 32 10 101.5t-37 87.5q-34 34 -44 67q-7 21 -57.5 216.5t-47.5 210.5q-5 42 -18.5 53.5t-59.5 5.5q-45 -5 -62 -71q-57 -221 -153 -480q-21 -50 -13.5 -129.5t42.5 -97.5q57 4 73 76
l46 195q90 9 139 10zM294 461q-13 7 -19.5 5.5t-20 -6t-25.5 -2.5q-15 1 -33 1q23 110 50 211q22 -105 48 -209z" />
    <glyph glyph-name="I" unicode="I" horiz-adv-x="512" 
d="M214 156q43 -57 76 -39t33 108q0 22 0.5 160.5t0.5 256.5q0 50 11 93.5t11 69.5q0 39 -98 94q-24 14 -43.5 6.5t-18.5 -33.5q15 -468 -8 -646q-2 -20 36 -70z" />
    <glyph glyph-name="P" unicode="P" horiz-adv-x="512" 
d="M503 652q0 125 -81 188.5t-201 21.5q-46 -14 -75 -32q-53 60 -127 32q-12 -5 -8 -14q39 -119 40 -209q1 -220 0 -320q0 -32 -10 -62q-13 -43 45 -107q43 -47 67 -40q18 4 18 80v276q49 -44 109.5 -45t108.5 30t81 86t33 115zM188 723q10 5 37 23.5t46.5 30t44 10.5
t40.5 -25q19 -27 21 -69.5t-9.5 -81.5t-38 -67t-59.5 -28q-55 0 -99 15v94q-1 24 8.5 50.5t8.5 47.5z" />
    <glyph glyph-name="T" unicode="T" horiz-adv-x="512" 
d="M316 627q0 22 10.5 45.5t9 38t-26.5 33.5q30 10 72.5 7t83.5 2.5t44 26.5q3 15 -46 46q-93 60 -147 46q-247 -66 -301 -77q-14 -3 -4 -19q21 -35 78.5 -51t111.5 -3q4 -39 4 -434q0 -17 -11.5 -45.5t-3.5 -57.5q12 -45 49.5 -71.5t59.5 29.5q16 55 20 131t0.5 201.5
t-3.5 151.5z" />
    <glyph glyph-name="U" unicode="U" horiz-adv-x="512" 
d="M146 619q-3 36 18 77t21 61q0 19 -42 57q-79 70 -120 50q-10 -11 -10.5 -31t4 -49.5t4.5 -43.5v-340q-1 -121 62 -196t174 -76q75 0 150 80q80 86 65 424q-1 27 15 72.5t16 61.5q-10 45 -57.5 84t-97.5 47q-30 4 -35.5 -9t5.5 -46q27 -92 27 -433q0 -105 -27 -152
q-26 -46 -70 -46t-71 45q-20 19 -27 101.5t-4 153.5t0 108z" />
    <glyph glyph-name="a" unicode="a" horiz-adv-x="512" 
d="M430 477q0 56 -25 101t-65.5 67t-91 25t-100.5 -26q-52 -28 -99 -95q-13 -19 0 -30q6 -4 20.5 -16t22.5 -17.5t22 -11t28 -6.5t22 7.5t9 25.5q2 56 41 84.5t84 -3.5q21 -16 21 -100q-54 15 -119.5 -13.5t-110.5 -79.5t-47 -99q-3 -57 45 -102t109 -45q66 0 125 66
q1 -38 26 -62.5t57.5 -22.5t55.5 33q4 5 13 14q-18 16 -28.5 40.5t-13.5 60t-3.5 62.5t1 74t1.5 69zM319 412v-71q-21 -44 -61.5 -77t-80.5 -33q-17 0 -27 11.5t-10 29.5q2 57 59 106t120 34z" />
    <glyph glyph-name="c" unicode="c" horiz-adv-x="512" 
d="M266 238q-63 0 -93.5 54t-23 122.5t42.5 112.5q50 63 93 63q20 0 27.5 -8t1 -17.5t-21.5 -13.5q4 -8 14.5 -39t24.5 -50t38 -19q34 -1 53.5 29.5t19.5 67.5q0 48 -51 80.5t-112 32.5q-43 0 -83 -22.5t-69 -58.5t-48 -84t-24 -96t7 -96.5t42 -85.5q32 -40 90 -56.5
t117.5 -7t98.5 42.5q56 46 56 89q0 61 -34 92q-35 32 -52 20q-11 -6 -13 -13t1 -19.5t3 -21.5q0 -17 -27 -59q-27 -39 -78 -39z" />
    <glyph glyph-name="e" unicode="e" horiz-adv-x="512" 
d="M299 677q-106 -2 -184 -98t-78 -217q0 -105 57 -165.5t158 -60.5q77 0 147.5 46t77.5 101q-2 20 -5.5 31.5t-14.5 20.5t-17.5 12.5t-30 11.5t-36.5 13q-5 2 -7.5 -2t-2.5 -15q1 -50 -33 -83.5t-84 -33.5q-56 0 -87 34t-28 93q44 -24 82 -24q42 0 96.5 35.5t93 88
t36.5 95.5q-2 58 -39.5 88t-100.5 29zM306 582q-3 -57 -58 -120.5t-110 -30.5q9 58 52.5 111t92.5 55q8 1 15.5 -4t7.5 -11z" />
    <glyph glyph-name="f" unicode="f" horiz-adv-x="512" 
d="M388 656q-10 -2 -27.5 -7t-33.5 -8t-34 -2q-10 130 -4 165q2 12 17 13t16 -12q0 -8 -7.5 -23t-3.5 -27q7 -18 25.5 -30.5t42.5 -12.5q49 0 49 74q0 42 -36 68.5t-84 25t-78 -31.5q-21 -21 -27.5 -60t-3 -77.5t-0.5 -81.5q-40 -3 -183 -36q-9 -1 -9 -12q1 -18 56 -52
t78 -26q22 -1 56 16q-3 -80 -5 -268q-1 -70 15.5 -105.5t56.5 -46.5q24 0 38 37q16 42 16.5 117.5t-8 170t-8.5 113.5q26 1 173 1q28 0 34 19q7 8 -21 34t-61 47t-39 18z" />
    <glyph glyph-name="g" unicode="g" horiz-adv-x="512" 
d="M51 397q0 -78 50.5 -127t128.5 -48q77 0 122 49q7 -72 -19 -107.5t-91 -35.5q-45 0 -69.5 22t-24.5 64q-28 -1 -40.5 -1.5t-29.5 -4t-23.5 -10t-11.5 -18t-5 -28.5q0 -34 62 -73t162 -39q100 -1 147.5 43t47.5 139q0 43 -2.5 103.5t-3 92.5t4.5 75t18 81q12 36 -18 64
q-34 34 -118 56q-5 1 -7.5 0t-3.5 -4t-1 -7.5v-9v-8.5q-81 20 -145.5 -15.5t-97 -103.5t-32.5 -149zM242 586q66 0 88 -93q1 1 7 1v-57q-15 -55 -39.5 -88t-70.5 -32q-32 1 -59 33.5t-27 71.5q0 64 27.5 114t73.5 50z" />
    <glyph glyph-name="h" unicode="h" horiz-adv-x="512" 
d="M491 600q-1 31 -24 49.5t-59 18.5q-104 0 -201 -115q2 38 1 67t0.5 62.5t9.5 59.5q24 81 -80 145q-25 15 -39.5 21.5t-30.5 6.5t-30 -12q-4 -9 13 -34q45 -61 45 -102v-447q3 -26 -12.5 -50.5t-15.5 -40.5q-3 -11 20 -46.5t53.5 -62t45.5 -14.5q21 9 21 93v235
q7 8 37 52.5t55 71.5t44 27q14 -3 22 -33.5t7 -55.5v-274q0 -123 59 -123q33 0 36 29q6 48 7.5 108t0 152t-1.5 117q0 20 9 47t8 48z" />
    <glyph glyph-name="i" unicode="i" horiz-adv-x="512" 
d="M316 772q18 7 22 19t-4 24t-22 23q-7 4 -30 19t-38 26t-26 23q-18 18 -39 -5q-23 -25 4 -104q16 -45 7 -63q-8 -21 -3.5 -26.5t20.5 -8.5q12 2 55.5 35.5t53.5 37.5zM287 125q35 -5 49.5 37.5t14.5 104.5q0 14 -28 0q-17 -8 -17 -3v3v274q0 9 10 27.5t10 31.5
q0 22 -47.5 57.5t-73.5 37.5q-25 2 -33.5 -25.5t8.5 -51.5q18 -25 20 -58q3 -45 3 -282q0 -140 84 -153z" />
    <glyph glyph-name="m" unicode="m" horiz-adv-x="512" 
d="M305 625q-24 39 -66 42t-74 -33q-6 10 -20.5 22t-26.5 18.5t-32 17t-23 12.5q-22 12 -38.5 -0.5t-17 -32t10.5 -29.5q14 -35 20.5 -81t8 -76.5t2.5 -118.5t2 -135q0 -5 -7 -21.5t-2 -29.5q12 -35 49 -47.5t69 9.5q11 7 12.5 16.5t-2 25t-3.5 23.5q1 59 0 116t0.5 123
t6.5 106q0 3 8 16.5t11 12.5q13 0 13 -67q0 -24 -1.5 -70.5t-2.5 -79t1 -74.5t8.5 -70t21 -51.5t36.5 -32.5q18 1 35 35.5t17 59.5v316q3 10 11 22.5t16 20.5t10 6q8 0 10 -17q-1 -58 -5.5 -149t-5.5 -175q-2 -119 68 -130q39 9 54.5 45t15.5 103q0 73 -4.5 152.5
t-4.5 129.5q0 9 10.5 20.5t10.5 22.5q0 21 -38 49.5t-63 28.5q-50 0 -101 -51z" />
    <glyph glyph-name="n" unicode="n" horiz-adv-x="512" 
d="M99 162q35 -68 66 -24q29 47 31 123v198q71 112 101 134q10 7 18 7q27 0 27 -109v-241q0 -7 -9.5 -24.5t-7.5 -27.5q3 -19 24 -41t45.5 -29t45.5 20q17 26 17 57v305q0 11 9.5 33t7.5 37q-2 21 -37 54.5t-39 39.5q-16 25 -51 23q-22 4 -61.5 -26.5t-72.5 -70.5
q0 9 -0.5 15t-3 12.5t-4 9.5t-7.5 9t-9 8.5t-12.5 11t-15.5 13.5q-40 36 -83 36q-35 -1 -41 -8t7 -33q17 -34 25 -90.5t9 -93.5t-0.5 -122.5t-1.5 -105.5q0 -56 23 -100z" />
    <glyph glyph-name="o" unicode="o" horiz-adv-x="512" 
d="M490 396q-1 36 -4 66t-13 66t-25.5 59t-44 35t-66.5 3q6 36 -16 55t-56 19q-59 0 -115.5 -54.5t-89.5 -134.5t-33 -154q0 -101 59 -163.5t152 -64.5q111 -1 183.5 76.5t68.5 191.5zM158 258q-30 31 -36.5 84.5t7 103.5t44 86.5t67.5 36.5q49 0 64 -16q12 -11 14.5 -8
t2.5 16v7q47 -45 57 -128.5t-26.5 -151.5t-109.5 -68q-47 0 -84 38z" />
    <glyph glyph-name="p" unicode="p" horiz-adv-x="512" 
d="M493 420q0 93 -58 166t-149 70q-40 0 -124 -23q-8 6 -55.5 23t-54.5 29q-31 27 -37 -29q-3 -26 21 -66.5t24 -66.5v-284q1 -11 -10 -54t-10 -55q-4 -15 25.5 -73.5t42.5 -55.5q26 5 41 27.5t19 53.5t5 68t-1 72q35 -35 112 -37q92 -2 150.5 67.5t58.5 167.5zM282 575
q34 -5 57 -38.5t28 -78t-2 -88.5t-35 -74t-69 -29q-51 0 -90 33v230q6 -1 48.5 23.5t62.5 21.5z" />
    <glyph glyph-name="r" unicode="r" horiz-adv-x="512" 
d="M81 286q0 -10 -10.5 -33.5t-8.5 -36.5q-6 -14 39.5 -63.5t60.5 -34.5q19 10 19 62v273q47 93 78 124q35 37 59 37q15 0 21 -4.5t4.5 -12.5t-6 -15.5t-11.5 -15.5q-10 -10 3 -17q12 -3 29.5 -13.5t29 -18t31 -10t35.5 10.5q29 19 31 48.5t-16 55t-48 44.5t-59 19
q-66 0 -152 -60q-14 30 -54 43t-102 17q-13 1 -17.5 -2t0.5 -11q44 -74 44 -167v-219z" />
    <glyph glyph-name="s" unicode="s" horiz-adv-x="512" 
d="M344 287q-15 -56 -135 -56q-31 0 -40 17q-7 13 15 23q19 9 10 26.5t-30 18.5q-24 6 -74 -29t-44 -60q0 -32 41 -58q59 -37 162 -37t155 41q57 45 57 112q0 26 -12 47t-26.5 34t-44.5 25.5t-47 17.5t-53.5 14.5t-46.5 12.5q-64 18 -64 63q0 38 31.5 62t78.5 24q20 0 30 -5
t8 -13.5t-16 -16.5q-9 -5 -12.5 -11t0 -12.5t7.5 -12t12 -13.5t12 -13q19 -25 51.5 -24t47.5 30q45 87 -21 123q-55 32 -138 28.5t-130 -45.5q-37 -33 -49 -78.5t8.5 -86t71.5 -54.5l132 -36q52 -13 53 -58z" />
    <glyph glyph-name="t" unicode="t" horiz-adv-x="512" 
d="M297 726q0 11 18.5 38t17.5 41q7 5 -24 28.5t-71 44t-54 18.5q-20 -3 -31.5 -20t3.5 -39q10 -12 16.5 -25.5t10 -24.5t5 -30t2 -29t0 -35.5t-0.5 -36.5q-19 -3 -53 -6.5t-55.5 -8t-46.5 -14.5q-10 -4 -6 -11q19 -41 62.5 -56t98.5 -1v-275q-1 -65 38 -106t103 -46
q22 -2 45.5 7t39 25t24 34.5t2 37t-28.5 30.5q-25 13 -50 16q-25 -46 -51 -46q-24 0 -24 51h7v277q11 0 43 -0.5t48 0.5t39 4t38 10.5t24 19.5q1 20 -4.5 32t-11 16.5t-29.5 16.5t-38 20q-10 6 -25.5 6t-27.5 -3t-29 -8t-24 -6v54z" />
    <glyph glyph-name="y" unicode="y" horiz-adv-x="512" 
d="M195 328l-116 -214q-18 -35 -17 -60q1 -21 12.5 -28t26 -2.5t30.5 16.5q27 20 48 59l247 447q3 9 26.5 19t25.5 20q-11 35 -66 75t-97 30q-10 -3 -4 -38t2 -50q-6 -25 -25 -75t-31 -74q-2 6 -30.5 80t-30.5 105q4 24 -7 30.5t-32.5 6.5t-31.5 5q-49 9 -74.5 -14.5
t-13.5 -78.5q1 -7 9 -7q32 0 43 -20z" />
    <glyph glyph-name="quotedblleft" unicode="&#x201c;" horiz-adv-x="431" 
d="M358 672l-58 240h-88l78 -240h68zM160 909h-86l80 -240h76z" />
    <glyph glyph-name="quotedblright" unicode="&#x201d;" horiz-adv-x="431" 
d="M374 912l-78 -240h-68l58 240h88zM202 912l-78 -240h-68l58 240h88z" />
    <glyph glyph-name="uni3002" unicode="&#x3002;" 
d="M387 186q0 50 39 88t89 38q38 0 68 -23.5t43 -57t7.5 -72t-33.5 -65.5q-28 -28 -66 -33t-70 9t-54.5 45.5t-22.5 70.5zM474 224q-25 -25 -10 -60.5t50 -33.5q20 1 36.5 16.5t16.5 37.5q0 36 -34 50.5t-59 -10.5z" />
    <glyph glyph-name="uni300A" unicode="&#x300a;" horiz-adv-x="1023" 
d="M736 1022l-218 -491l218 -488h-80l-218 488l218 491h80zM586 1022l-218 -491l218 -488h-80l-220 488l220 491h80z" />
    <glyph glyph-name="uni300B" unicode="&#x300b;" horiz-adv-x="1023" 
d="M286 1022h80l218 -491l-218 -488h-80l218 488zM438 1022h80l218 -491l-218 -488h-80l218 488z" />
    <glyph glyph-name="uni4E00" unicode="&#x4e00;" 
d="M27 626q-15 -10 -11 -29.5t14.5 -38t17.5 -22.5q21 -16 70 -36q30 -12 89.5 19t94.5 30q28 -1 174.5 26t179.5 25q26 -2 82 3.5t93 1t60 -27.5q32 -32 56 -34t53 25q12 18 7 50.5t-21 45.5q-10 8 -34 28t-37 29q-14 11 -36 -4q-16 -17 -43.5 -20.5t-72 1t-55.5 4.5
q-20 0 -52 0.5t-45.5 0.5t-40 -1.5t-56 -5.5t-72.5 -10q-89 -13 -174.5 -18t-162.5 -18q-55 -9 -78 -24z" />
    <glyph glyph-name="uni4E0D" unicode="&#x4e0d;" 
d="M867 871q17 22 8 53.5t-39 34.5q-13 1 -28 9.5t-22 10t-28 -6.5q-484 -17 -619 -56q-35 -10 -40 -28t16 -51q23 -38 32 -44q17 -11 73 5q201 55 356 65q-61 -72 -107 -135q-5 7 -13.5 22.5t-14 25t-17 21.5t-24 12.5t-34.5 -2.5q-13 -4 -20.5 -32.5t-4.5 -49.5
q3 -17 27 -43t29 -45q-31 -32 -123.5 -144t-135.5 -154q-48 -47 -132 -162q-15 -21 -10 -27q7 -3 25 9.5t23 12.5q15 8 41.5 29.5t46.5 29.5q32 13 142.5 124.5t155.5 171.5q17 -56 15 -174t-17 -150q-3 -7 -6.5 -16t-5 -12.5t-4.5 -9t-5 -6t-7 -3.5t-10.5 -1.5t-15.5 0.5
q-13 1 -19.5 -1t-4 -9t4.5 -10t10 -14l6 -9t5.5 -8.5t3.5 -7.5v-6q1 -5 3.5 -16.5t4 -17.5t7 -12.5t14.5 -7.5q15 -2 43 23.5t40 26.5q23 8 38.5 28.5t23 54.5t11.5 64t2.5 76t-3 70t-4.5 65q139 -115 294 -178q45 -18 57 -18.5t34 18.5q8 8 38 -5.5t41 9.5q7 8 6 15
t-10 14.5t-18.5 13.5t-18.5 12.5t-12 10.5q-6 9 -43 31q-45 27 -128.5 75t-151 89t-122.5 80q-1 4 -4.5 12.5t-3.5 9.5q14 16 31 33.5t31.5 34.5t31.5 42q37 52 67 82q20 21 11 48q92 5 112 -4q26 -9 34.5 -8t30.5 10z" />
    <glyph glyph-name="uni4E2D" unicode="&#x4e2d;" 
d="M259 365q30 -2 182 22q2 -99 12 -296q2 -27 4 -46t5.5 -31.5t8 -17.5t10.5 -3q12 3 22 35.5t19 37.5q3 3 9.5 9t8.5 8t6 7t5 9t3.5 10.5t2.5 14.5t0.5 18.5t0.5 25.5q-1 37 2.5 122.5t3.5 113.5q27 5 129 20t155 26q15 3 26.5 26.5t1.5 43.5q-11 24 -25 33q8 15 40 68
t46 83q33 71 -25 110q-20 14 -53.5 5t-50.5 5q-30 23 -118.5 23t-117.5 -10q-6 102 11 127q14 21 2 42q-7 12 -27.5 23.5t-43.5 16t-41.5 -7t-19.5 -42.5q-3 -98 -9 -179q-24 -5 -80 -13.5t-96 -17t-67 -20.5q-5 19 -44.5 36.5t-60.5 0.5q-33 -26 -12 -186q3 -24 8 -45
t7.5 -33.5t11.5 -33.5t10.5 -25.5t14 -30t14.5 -28.5q15 -32 41 -59.5t45 -16.5q15 9 23 20zM566 523q1 152 4 207q13 1 50 8t68.5 12.5t65.5 8t40 -4.5q0 -37 -13 -77.5t-25.5 -64t-39.5 -69.5q-30 0 -150 -20zM440 507q-11 -1 -76 -11t-99 -11q-44 85 -51 160
q18 6 56.5 18.5t59 18.5t52 13.5t59.5 11.5q-1 -73 -1 -200z" />
    <glyph glyph-name="uni4E3A" unicode="&#x4e3a;" 
d="M370 857q-18 -11 -40 9t-40 12q-7 1 -15 -13t-13 -31.5t-3 -25.5q11 -22 33.5 -44.5t41.5 -30.5q19 -5 24 -3t12 13.5t12 14.5q9 6 9.5 34.5t8.5 36.5q30 45 22 53q-7 4 -16.5 -0.5t-21.5 -14t-14 -10.5zM865 338q18 92 23 129.5t0 87t-28 96.5q-10 19 -41 34t-53 3
q-18 -15 -91 -6.5t-97 1.5q49 110 83 177q17 32 16.5 69t-20.5 57q-7 20 -28.5 25.5t-41.5 -11.5q-23 -21 -24 -47q-3 -49 -97 -278q-47 0 -170 -29q-38 -9 -46 -19.5t4 -43.5q16 -36 60.5 -48t92.5 6q-36 -83 -74.5 -151t-86 -142.5t-74.5 -123.5q-44 -77 -38 -82
q8 -2 27.5 15.5t26.5 18.5q13 8 47 44.5t56 45.5q88 81 163 248q20 -20 59 -49t54 -49q18 -25 33.5 -16.5t24.5 25t11 29.5q3 25 -26 56q-8 8 -30.5 14t-57 12.5t-50.5 10.5l58 127q15 3 92.5 20t119.5 20q16 -6 16 -90q0 -101 -40 -208t-85 -142q-4 -3 -16 -12.5t-14.5 -11
t-11.5 -7.5t-12 -5t-11.5 0t-15.5 2.5t-16.5 7.5t-22.5 11q-20 17 -20 -5q0 -7 3 -26q5 -36 -1 -42q-9 -38 10.5 -56.5t58.5 0.5q25 11 59 6q49 1 107 46q101 75 135 256z" />
    <glyph glyph-name="uni4E3E" unicode="&#x4e3e;" 
d="M337 469q1 -2 4 -13t4.5 -15t6 -13t8 -12.5t10 -7t14.5 -3.5q7 0 22.5 1.5t23.5 1.5v-77q-67 -8 -184 -31q-13 -2 -18.5 -11.5t-3.5 -20t7 -20.5t11 -15q9 -14 30 -21t39 0q25 9 118 24q0 -26 2.5 -83.5t2.5 -90.5q0 -61 16 -67q6 -3 12 12q2 4 4 10q5 17 30 40t30 39
q4 15 6 44t1 56.5t0 53.5q101 14 135 14q41 0 51.5 23t-15.5 51q-2 1 -11 9.5t-13 9.5t-17.5 5.5t-24.5 -1.5q-19 -5 -52 -9t-53 -8q0 58 -1 82q7 3 23.5 7.5t24.5 7.5t18.5 9.5t15 16.5t4.5 24q2 5 2.5 10t-1.5 9t-3.5 6.5t-5 7t-4.5 6.5q-2 8 -30.5 6.5t-41.5 -7.5
q6 44 -31 73q-33 26 -57 7q-9 -8 -14 -21q-4 -10 -4.5 -23t1.5 -33t2 -23q-13 -3 -40.5 -3.5t-40 -7.5t-13.5 -29zM213 906q6 -41 17 -68t41 -68q9 -14 34 -21.5t43 0.5q32 28 6 62q-61 79 -74 102q-6 23 -30.5 32t-31.5 -16q-5 -17 -5 -23zM460 976q-23 15 -35 -12t-12 -56
q18 -47 63 -74q14 -5 18.5 -2.5t10 12t9.5 11.5q7 6 8 28.5t8 29.5q2 4 8.5 12.5t10 16t1.5 14.5q-7 2 -17.5 -2.5t-18.5 -9.5t-17 -3t-15 15q-6 12 -22 20zM539 748q-72 -7 -223 -34.5t-202 -45.5q-25 -9 -28 -22t14 -36q19 -28 29.5 -31t52.5 9q29 10 91 26
q-28 -39 -127.5 -161.5t-141.5 -190.5q-30 -48 -19 -57q10 -8 40 24q27 29 43 38q57 34 334 377q56 13 133 22q6 -7 24 -24.5t31 -33t30 -39.5q109 -153 230 -210q34 -16 45 -15.5t23 18.5q4 8 25.5 0.5t25.5 -3.5q8 5 41 -12q12 -6 27 11q10 11 -2.5 24t-30.5 24t-19 15
q-4 10 -58 40q-151 79 -266 218q41 5 85.5 5.5t55.5 -4.5q25 -13 46 -4.5t24 38.5q3 24 -7.5 35.5t-36.5 19.5t-32 11q-13 5 -15 5t-9 -4.5t-16 -6.5q-11 -5 -81.5 -11t-78.5 -8q15 16 58.5 58t71 74.5t45.5 66.5q21 23 20 42.5t-12.5 31t-36.5 27.5q-12 8 -34 -4t-17 -25
q-6 -43 -36 -93q-74 -126 -116 -185z" />
    <glyph glyph-name="uni4E4B" unicode="&#x4e4b;" 
d="M331 948q-7 -23 2.5 -38.5t25 -22t29.5 -19t14 -30.5q-92 -18 -277 -73q-37 -14 -34.5 -39t28 -49.5t49.5 -26.5q35 -2 63 17q18 12 43 28.5t34 22.5t24.5 16t25.5 16t24 14t33 18q3 -30 16.5 -50t36.5 0q9 8 18.5 37.5t17.5 38.5q12 15 14 29q38 18 38 28q-1 10 -35 0
q-10 53 -64 95t-109 11q-11 -6 -17 -23zM689 900q-21 -11 -20 -36q2 -26 -38 -61q-44 -41 -141 -114.5t-113 -86.5q-44 -35 -20 -34q25 2 84 38q52 33 167.5 87.5t170.5 72.5q68 22 55 70q-10 37 -57.5 62.5t-87.5 1.5zM25 455q-30 -3 -35.5 -21.5t6.5 -51.5q9 -28 37 -37.5
t59 -6t70 3.5t63 -12q24 -11 91.5 -61t119.5 -70q82 -32 117 -44.5t103 -28.5t124 -16q61 0 64 12q0 8 10.5 15t10.5 15q6 16 41.5 20.5t44.5 11.5q14 10 68 10q20 0 20 38q0 12 -33 18.5t-70.5 10t-43.5 7.5q-90 9 -137.5 14t-133 17.5t-146 29.5t-98.5 40
q-110 65 -172.5 81.5t-179.5 4.5z" />
    <glyph glyph-name="uni4E5F" unicode="&#x4e5f;" 
d="M209 638q10 34 -3.5 56t-36.5 21.5t-45 -17.5q-7 -6 -11 -25t-6 -43.5t-4 -32.5q-10 -4 -36 -6.5t-37.5 -12.5t-12.5 -36q0 -13 11 -26t24 -21t27.5 -16t15.5 -9q-8 -113 20.5 -195t94.5 -114q78 -37 131.5 -45t215.5 -8q174 0 251.5 13t152.5 69q20 9 28.5 43t12.5 41
q9 12 4 27.5t-20 15.5q-7 0 -11.5 1t-8 4t-5.5 5t-3.5 8.5t-2 9.5t-1.5 13t-2 14q-3 21 -8 29t-10.5 2.5t-11.5 -23.5q-3 -9 -7 -23t-5.5 -18.5t-5.5 -13t-7 -11.5t-9.5 -8.5t-14.5 -9.5l-20 -10q-88 -42 -261 -42q-169 0 -226 7q-46 6 -73.5 12.5t-49.5 17.5t-30.5 27
t-15.5 40.5t-4.5 57.5t2.5 79l143 83v-93q3 -21 1 -40t3.5 -31.5t23.5 -11.5q32 2 47.5 19.5t16.5 55.5q2 65 13 161l125 76q25 15 36 8t6 -46q-8 -60 -36 -118q-11 -22 -21.5 -26t-38.5 1q-27 4 -27.5 -6t10.5 -30t9 -29q2 -27 32 -43.5t53 4.5q5 5 34 17q37 15 76 111
q6 15 12 39.5t16 71.5t18 80q6 26 -23 56.5t-52 36.5q-27 6 -75.5 -30.5t-62.5 -36.5q-21 -7 -75 -29q10 36 14.5 83.5t-3.5 93.5q-1 17 -37.5 40t-54.5 12q-16 -11 -22 -92q-2 -26 -6.5 -87t-7.5 -95q-37 -13 -133 -52z" />
    <glyph glyph-name="uni4E86" unicode="&#x4e86;" 
d="M345 93q-1 -11 32.5 -37.5t44.5 -26.5q17 -1 43 20t38 23q109 58 137.5 205.5t-22.5 328.5q-13 48 -31 78q9 9 36 41t44.5 51t43 39t45.5 26q30 1 44.5 21.5t9.5 46.5t-26 42q-3 2 -25 22.5t-37.5 27.5t-31.5 2q-24 -8 -78 -7.5t-85 -3.5q-75 -14 -274 -34
q-26 -3 -35.5 -20.5t-3.5 -36t19 -29.5q41 -34 78 -40t59 2t74 36l12 6q127 69 187 69q25 0 14 -21q-14 -28 -29.5 -63.5t-34.5 -80t-29 -67.5q-9 2 -25.5 10.5t-29.5 14.5t-29.5 5t-29.5 -13q-18 -23 -10 -45t24.5 -35.5t33 -37t16.5 -48.5q0 -1 3 -69.5t1 -125t-11 -85.5
q-22 -68 -58 -103t-100 -25q-19 5 -26 2t-11 -4t0 -8.5t6.5 -11.5t10.5 -13q4 -5 6.5 -8t5.5 -7.5t4 -7.5t0 -5z" />
    <glyph glyph-name="uni4ECA" unicode="&#x4eca;" 
d="M392 991q-94 -125 -200 -254t-170 -214q-26 -34 -42 -69q-19 -41 -10 -48q9 -6 37.5 14.5t40.5 15.5q8 1 21 14t20 14q9 1 38 33q45 51 106.5 110.5t104.5 114.5q30 38 74.5 82.5t72.5 83.5q21 -2 33 -10t22 -21t20 -20q14 -10 40 -53q33 -52 115.5 -129.5t157.5 -134.5
q19 -15 35.5 -13.5t27.5 10t28 10t38 -12.5q14 -10 36 0t19 21q-6 20 -41 52t-44 43q-12 14 -87 71t-85 68q-9 9 -41 38t-47 49q-41 55 -106 104t-126 55q-27 24 -42.5 19t-45.5 -43zM339 417q-38 2 -51.5 -15.5t0.5 -52.5q15 -37 26 -45q18 -12 60 -5q26 4 88 28.5t86 27.5
q5 -3 -13 -51q-46 -122 -120 -235q-36 -55 -8 -49q15 3 48 24q129 84 195 193q14 24 38.5 55.5t36.5 53.5t15 36.5t-5.5 28t-20 23.5t-37.5 28q-11 8 -17 12q-24 16 -49 -1q-26 -17 -125 -37.5t-147 -18.5zM614 566q17 10 18 32.5t-10.5 41t-27.5 20.5q-5 1 -24 12t-32 4
q-27 -16 -74 -27t-82 -11q-12 0 -21 -12t-1 -25q25 -114 173 -64q11 4 30.5 10t31 10t19.5 9z" />
    <glyph glyph-name="uni4ECE" unicode="&#x4ece;" 
d="M255 430q11 -9 102 -104q47 -50 61 -48t28 60q4 18 5.5 31.5t-1.5 24.5t-5 17.5t-12 15.5t-14.5 12t-21 13.5t-23.5 14.5q-41 27 -88 43q15 38 30.5 150.5t15.5 179.5q0 11 4.5 26.5t4.5 27.5t-9 24q-6 17 -45 38t-58 5q-13 -11 -14 -35.5t3.5 -59t3.5 -51.5
q-29 -337 -145 -487l-78 -112q-18 -22 -13 -30t24 8q12 9 52 35t71 49t51 46q36 40 71 106zM595 883q17 -133 -12.5 -293.5t-76.5 -233.5q-18 -29 -68.5 -87t-63.5 -77q-4 -7 -25 -25.5t-25 -33.5q4 -9 28 2q53 22 130.5 74t110.5 92q28 35 55 97q16 -14 30.5 -61t27.5 -66
q24 -33 62.5 -68.5t71.5 -54.5q60 -34 72 -17q8 12 17 16t15.5 3t19 -6.5t18.5 -7.5q4 -1 14.5 -5.5t15.5 -5.5t12.5 3.5t12.5 16.5q8 7 -3.5 19.5t-32 26t-23.5 17.5q-9 11 -80.5 61t-81.5 65q-18 16 -41.5 58t-37.5 54q-10 9 -27 34.5t-27 33.5q16 48 24.5 162.5
t18.5 153.5q12 53 -22 108.5t-68 47.5q-16 -4 -30.5 -39.5t-10.5 -63.5z" />
    <glyph glyph-name="uni4EE5" unicode="&#x4ee5;" 
d="M89 411q-9 -10 -29.5 -22t-36.5 -22t-28.5 -22t-11 -28t19.5 -35q23 -24 35.5 -34t32 -9t39.5 22q23 24 78.5 62.5t87.5 70.5q69 69 76 83q24 51 16 57q-8 7 -7 23q2 17 -37 0q-6 -2 -13 -6q-75 -38 -112 -63q0 41 6.5 134.5t6.5 145.5q0 16 -14 33.5t-33 28.5t-39 7.5
t-31 -27.5q-10 -23 -11 -62q1 -268 5 -337zM407 917q-14 2 -27.5 -24t-13.5 -56q0 -25 8.5 -54.5t30 -52t50.5 -13.5t30.5 32t-14 60t-17.5 46q-4 28 -17 44t-30 18zM750 894q-44 -140 -121 -272q-25 22 -65.5 7.5t-21.5 -52.5q9 -19 37 -45q-20 -33 -43.5 -63.5
t-39.5 -50.5t-50 -52.5t-47 -45t-61 -55t-64 -56.5q-19 -16 -15 -23q12 -2 17.5 -0.5t16.5 7.5t16 8q48 17 98 31q36 10 69 30t64 50.5t53 55.5t52 64q4 -22 15.5 -42.5t29.5 -44.5t25 -35q13 -21 64 -63t81 -60q14 -9 25.5 -5t17.5 14t15.5 19t20 11t29.5 -11q56 -40 74 14
q2 6 -15 17t-34.5 21.5t-17.5 14.5q-29 30 -75.5 64.5t-84 69t-64.5 80.5q-15 25 -33 46q33 47 75 149.5t62 134.5q31 48 -21 104q-28 28 -49.5 16.5t-34.5 -52.5z" />
    <glyph glyph-name="uni4EEC" unicode="&#x4eec;" 
d="M346 839q-25 -98 -26.5 -323.5t11.5 -323.5q3 -38 27 -61t47 2q4 5 6 11.5t2.5 9t0 13t-0.5 13.5q0 88 -3.5 216t-1.5 217.5t12 212.5q2 28 -15 44t-39 0q-14 -8 -20 -31zM269 1014q-21 20 -60 -24q-41 -45 -115.5 -193t-74.5 -188q0 -33 5 -39.5t25 9.5q12 10 27.5 18
t27 17.5t22.5 29.5q17 33 57 81q-26 -114 -36 -277.5t1 -296.5q3 -29 10 -43t24 -19q8 0 14 12q1 7 16 14.5t25 20.5t2 36q-6 92 -4.5 143.5t7 138.5t5.5 139q0 34 13 72t13 58q-13 47 -54 45q56 72 81 117q16 30 15.5 52.5t-10.5 37t-36 39.5zM548 896q-9 -16 -19.5 -16
t-19 9t-20.5 14t-24 -1q-10 -6 -10.5 -34t5.5 -39q36 -40 74 -50q12 -3 16.5 1.5t6 14.5t5.5 14q7 5 0.5 27.5t-2.5 29.5q1 4 4 15t3.5 16t-1.5 14q-6 6 -18 -15zM646 928q-23 1 -28.5 -9t-5.5 -35q0 -28 12 -39.5t33 -3.5q186 67 204 57q8 -4 10 -35q19 -413 1 -659
q-8 -28 -23 -33t-70 -5q-18 0 -22 -5t-1 -9t13 -14q4 -5 6.5 -7.5t6 -7t3 -6t-0.5 -5.5q2 -24 24.5 -43.5t43.5 -2.5q4 3 19.5 10t20.5 14t23 16.5t23 19.5t29.5 24t27.5 34q6 45 8 94.5t1.5 86.5t-2.5 104t-3 115q0 12 -14 281q-1 24 -15.5 42.5t-27.5 27t-38 20.5
q-23 11 -36 -1q-9 -21 -59.5 -25.5t-104 -1.5t-58.5 1z" />
    <glyph glyph-name="uni4EF6" unicode="&#x4ef6;" 
d="M239 941q-25 -45 -104.5 -163.5t-108.5 -177.5q-25 -52 -10.5 -67.5t54.5 15.5q15 12 44.5 29.5t42.5 33.5q12 15 16 19q-21 -120 -17 -364q3 -177 52 -186q10 2 14 14q5 14 39 35q9 4 1 62q-12 91 -12 225t19 186q10 34 1 56t-32 32q110 118 119 175q1 5 6 18t5 23
t-9 20q-8 17 -39 33.5t-54 15.5q-11 -4 -27 -34zM560 749q12 -29 27.5 -41.5t48.5 -27.5v-97q-208 -46 -284 -76q-19 -8 -15.5 -25.5t14 -33.5t20.5 -23q1 -1 8.5 -6t10.5 -6.5t10.5 -5.5t12.5 -4.5t13 -1t16 1.5t16 6q53 27 180 48q5 -40 2.5 -174t8.5 -185q12 -73 26 -75
q13 2 19 14t10 29.5t9 25.5q7 10 14.5 39.5t22.5 42.5q17 14 9 302q137 23 191 16q30 -4 51.5 25.5t7.5 55.5q-15 26 -47.5 43t-61.5 9q-27 -8 -74 -11t-71 -8q-1 33 -1 105q13 6 39 16t34 13q8 4 12.5 12t5.5 16t1.5 24t1.5 24q-2 12 -10.5 20.5t-21.5 16.5t-18 13
q-11 4 -14.5 4.5t-15.5 -4t-14 -5.5q-2 22 3.5 49t6.5 38.5t-10 36.5q-36 55 -85 57q-10 1 -17.5 -3.5t-10 -8.5t-7.5 -15t-6 -13q-2 -14 5.5 -50.5t4.5 -62.5q-2 -19 -2 -66q-9 -3 -28 -8.5t-28 -8.5q-10 26 -40.5 38.5t-61.5 -0.5q-14 -7 -20 -26q-6 -18 -24 -43
t-43.5 -54.5t-33.5 -40.5q-33 -44 -18 -58t60 25l7 7q29 16 81.5 49.5t72.5 45.5z" />
    <glyph glyph-name="uni4F17" unicode="&#x4f17;" 
d="M294 246q5 -1 76 -61.5t85 -55.5q15 13 18.5 64.5t-6.5 64.5q-12 19 -51 41.5t-81 35.5q12 29 18.5 51t12.5 46t11 39q8 27 -6.5 45.5t-46.5 40.5q-38 25 -54 1.5t-11 -70.5q-31 -193 -159 -320q-45 -43 -68 -68q-24 -24 -21 -32q4 -7 24 2q9 4 70 27.5t83 38.5
q26 17 57 48t49 62zM449 995q-74 -96 -165.5 -202t-149.5 -184q-62 -83 -59 -124q10 -9 39.5 12t39.5 17q15 -2 29.5 13.5t21.5 16.5q14 2 44 35q39 43 88 90t87 93q43 51 83 89q12 -4 23 -18t20 -19q11 -6 35 -42q28 -44 100.5 -110.5t129.5 -105.5q38 -26 61 -2
q7 11 25 10.5t36.5 -7.5t35.5 -3.5t21 23.5q-3 13 -16 26.5t-34 30t-31 26.5q-11 12 -76.5 58.5t-74.5 55.5q-5 4 -34.5 27.5t-40.5 39.5q-16 22 -54 53.5t-64 46.5q0 30 -18.5 59t-42.5 37q-21 6 -59 -42zM957 155q-34 32 -118 87t-111 78q11 37 16.5 91.5t10.5 74.5
q7 31 -8.5 50t-48.5 36q-44 23 -57.5 -1t-6.5 -77q3 -21 -20 -158q-8 -49 -38.5 -99t-58.5 -79t-75 -72q-24 -22 -22 -32q3 -5 26 4q16 6 49.5 18.5t50 19t43 19.5t42.5 25.5t33 31.5t29 42q49 -57 89 -91.5t92 -55.5q17 -7 35.5 7.5t32.5 10.5q1 0 7.5 -4.5t9 -6t9.5 -4.5
t11 -3t9.5 0.5t10 4t8.5 9.5q11 8 5 19.5t-16.5 20t-23.5 19t-15 15.5z" />
    <glyph glyph-name="uni4F1A" unicode="&#x4f1a;" 
d="M588 703q-5 1 -24 11.5t-32 3.5q-14 -7 -38 -14t-42.5 -10.5t-48.5 -8.5t-39 -7q-13 0 -22.5 -13t-1.5 -26q5 -7 8 -23.5t12 -24.5q28 -24 51.5 -28.5t90.5 10.5q88 25 106 36q25 17 15.5 54.5t-35.5 39.5zM884 426q4 30 -9.5 44t-44.5 21.5t-40 12.5q-15 6 -17.5 5.5
t-10.5 -5t-18 -6.5t-137 -21t-187 -29t-151 -29.5t-138 -36.5q-33 -13 -36.5 -30t19.5 -48q16 -22 21 -28.5t17 -12t25 -2t40 12.5q108 37 162 50l-92 -133q-23 -35 -51 -48q-49 -24 -4 -83q15 -20 33.5 -27t31.5 -6t53.5 10.5t67.5 14.5q57 10 135 26t132 25q12 -60 68 -38
q42 17 46 73.5t-29 91.5l-12 13q-11 13 -15.5 17.5t-16.5 17t-20.5 18.5t-20.5 15t-24.5 14t-24.5 7q-19 4 -29.5 -13t-11.5 -34.5t0 -34.5q0 -5 6.5 -12.5t15.5 -15t11 -9.5q-28 -7 -93 -20.5t-104 -22.5q-33 -7 -39 3q-6 11 133 150q17 17 14 35l41 8q40 7 60 10t55.5 7.5
t61 3.5t43.5 -6q29 -7 42.5 -4.5t32.5 14.5q4 2 9 35zM421 1002q-91 -114 -196.5 -231.5t-159.5 -183.5q-20 -24 -40 -60.5t-19 -58.5q10 -9 39 11t38 16q14 -2 27.5 13t21.5 16q15 2 43 33q43 47 98.5 101t96.5 104q27 33 61.5 66.5t53.5 55.5q18 1 29.5 -6t21.5 -19
t19 -17q10 -6 39 -47q31 -46 109.5 -112.5t148.5 -114.5q19 -13 34 -11t24 10.5t24.5 11t35.5 -10.5q13 -9 32 1t17 21q-1 10 -15 23.5t-33 29t-25 22.5q-15 18 -87 67t-83 59q-8 8 -38.5 31.5t-43.5 40.5q-27 34 -81 76t-93 52q-21 44 -42.5 48t-56.5 -37z" />
    <glyph glyph-name="uni4F5C" unicode="&#x4f5c;" 
d="M290 982q-19 0 -27 -7t-13 -21.5t-12 -21.5q-35 -64 -151 -272q-33 -59 -40.5 -98t6 -48.5t46 10t72.5 67.5q7 9 19 17t22 23q-8 -36 -13.5 -87.5t-7.5 -91t-5 -99.5t-4 -83q-3 -42 4.5 -102t20.5 -77q8 -10 15.5 -13.5t14 0.5t10.5 15q7 18 44 36q11 5 3 63
q-11 76 -8.5 218t21.5 193q14 39 -3 66t-54 26q15 33 63 97.5t55 101.5q6 13 -25 50t-53 38zM708 966q4 16 -9.5 45.5t-36.5 34.5q-28 12 -39 0q-49 -55 -82 -118t-82 -186q-37 -94 -27 -147q5 -10 18.5 -15.5t27.5 -1.5q7 2 17 3.5t13.5 3t8 9t9.5 22.5q10 31 29 70
q36 -51 91 -39q-7 -85 -7 -275t5 -289q2 -27 4 -46t6 -31t8.5 -17t10.5 -3q11 3 20 34.5t19 35.5q2 2 7.5 7t7.5 6.5t6 6t5.5 7t4 8t3 10.5t1 12t0.5 15q0 36 3 73q90 3 162 35q13 6 15.5 33.5t-6.5 40.5q-6 3 -13.5 10t-12 11t-14 6t-20.5 -5q-8 -4 -29 -8t-46 -7.5
t-31 -4.5q1 17 2.5 63.5t2.5 64.5q79 3 146 38q11 6 13.5 34.5t-8.5 38.5q-6 3 -17 14t-17.5 13t-24.5 -4q-7 -4 -24 -7.5t-37 -7.5l-25 -5q2 24 1 44.5t0.5 42t7.5 34.5q15 4 80 18t96 25q15 5 24 27.5t-1 47.5q-3 5 -6 9t-5.5 7t-7.5 6l-7.5 4.5t-9.5 4t-9 3.5t-11 3.5
t-11 3.5q-18 7 -29 -4q-25 -12 -75.5 -24t-116.5 -25t-86 -18q16 24 42.5 55.5t39 59.5t26.5 88z" />
    <glyph glyph-name="uni4F73" unicode="&#x4f73;" 
d="M808 352q17 6 25 33t-0.5 52t-33.5 25t-87 -16q1 15 1.5 46t0.5 47q22 6 61 15.5t55 13.5q13 7 20.5 27t-1.5 43q-3 7 -7.5 12t-7.5 8t-10.5 6t-9.5 4t-13 4t-13 4q-18 5 -35 -6.5t-34 -13.5q0 54 1 81q84 26 118 49q25 18 13.5 56t-37.5 40q-6 0 -26.5 11t-34.5 3
q-15 -8 -27 -14l3 12q3 20 3 68q0 15 -14.5 33.5t-33.5 30.5t-40.5 8t-33.5 -29q-7 -14 -9.5 -42t-3 -66t-1.5 -53q-17 0 -57 -11.5t-57 -11.5q-9 0 -16.5 -14t-0.5 -25q5 -8 10 -23.5t12 -25.5t22 -17q5 -2 14 -6.5t13.5 -6t13 -3t18.5 -0.5t23 4l-2 -74q-6 -1 -50 -10
t-61 -8q-24 1 -33.5 -9.5t-5.5 -26t12.5 -30t17.5 -22.5q11 -22 49 -24t68 9q-1 -31 -1 -88q-85 -12 -95 -14q-20 -5 -22.5 -25t4.5 -37t17 -33q8 -13 21.5 -15t36 1.5t35.5 2.5q-1 -35 1 -91q-126 -10 -222 -32q-17 0 -18.5 -18.5t7.5 -38t18 -24.5l12 -9t13.5 -10
t15.5 -8.5t18.5 -3.5t22.5 4q50 18 200.5 25t269.5 -7q21 -7 43 10t25 32q9 43 -55 86q-11 7 -31 7.5t-38.5 -2t-40.5 0.5q-21 3 -110 -2q-4 31 -4 100q83 26 99 32zM366 988q-3 1 -28.5 12.5t-40.5 10.5t-19 -19q-3 -13 -36 -46q-52 -56 -123.5 -185t-81.5 -193
q-7 -39 6 -36q1 1 3 2q4 5 18 10.5t18 17.5q3 10 14 21t20 4q5 -6 16.5 -1.5t17.5 -1.5q9 -9 26 24q19 36 84 124t98 126q5 5 16 16.5t16 17.5t10 16.5t4 22.5t-7 26q-11 26 -31 31zM236 675q-6 -31 -11 -60.5t-9 -62t-6 -55t-4 -60.5t-3 -55t-2.5 -62.5t-2.5 -61.5
q-8 -191 44 -206q10 1 16 16q6 14 43 33q13 8 3 69q-7 77 -7 129.5t5 149t5 97.5q1 35 13 75.5t13 58.5q-12 49 -59 49q-28 0 -38 -54z" />
    <glyph glyph-name="uni4FE1" unicode="&#x4fe1;" 
d="M765 725q-43 -10 -100 -26t-98 -23q-19 -3 -25.5 -16t-1.5 -27t13.5 -27t16.5 -18q12 -8 20 -16q21 -20 149 24q37 14 54 18q9 3 14 10t6.5 12t3 20t2.5 21q-1 11 -7 18.5t-16.5 14.5t-14.5 12q-5 6 -16 3zM552 82q24 -35 70 -30q15 2 107 13t126 14q18 7 23.5 39
t-13.5 44q1 -1 3 -1q6 17 24 48t30 53t12 52.5t-21 56.5q-8 10 -41.5 25t-46.5 10q-15 -19 -37 -20q-180 -16 -256 -50q-10 5 -21.5 9t-26 3t-19.5 -11q-14 -35 -1 -88t40.5 -104t47.5 -63q5 -8 19 -19q-7 4 -19 19zM575 233q53 14 115.5 33.5t100.5 26.5q-4 -16 -12 -33.5
t-13.5 -27t-21.5 -33.5t-22 -34q-43 -4 -107 -17q-15 13 -40 85zM770 562q-53 -10 -107.5 -26.5t-89.5 -23.5q-19 -3 -26 -15.5t-3 -26.5t12 -26.5t17 -17.5q5 -3 12.5 -9t12 -8.5t15.5 -5t22 2.5q125 29 169 47q5 2 9 6.5t5.5 11.5t2.5 12t1.5 15.5t1.5 15.5
q-1 11 -7.5 18.5t-16.5 15t-14 12.5q-5 7 -16 2zM590 960q-3 -22 21 -43.5t28 -34.5q-72 -15 -246 -73q-18 -9 -14.5 -28.5t17.5 -40t24 -22.5q1 -1 16.5 -9t23.5 -11t23 -3t28 7q26 14 80.5 30t97.5 26t152 34q20 4 46.5 4t42.5 3.5t29 19.5q53 64 -51 108q-17 7 -54 -2
t-46 -9q-19 0 -67 -11q-2 24 -13 43.5t-18.5 27t-33.5 31.5q-14 13 -38 16t-36 -11q-7 -14 -12 -52zM259 966q-33 -59 -73.5 -120t-69 -110.5t-57.5 -117.5q-23 -55 -7 -64q12 -7 46 22.5t52 26.5q12 -2 25.5 19t23.5 22q13 5 44 44q-21 -96 -32 -260t0 -301q4 -42 19 -60
q26 -29 39 1q6 16 44 36q9 5 3 70q-10 81 -7.5 244.5t24.5 221.5q15 39 -2.5 68t-54.5 25q49 62 103 143q16 25 16.5 46.5t-6.5 34t-25 33.5q-29 35 -53.5 29.5t-51.5 -53.5z" />
    <glyph glyph-name="uni505C" unicode="&#x505c;" 
d="M837 470q51 19 113 14q37 -3 46 17.5t-12 55.5q-31 50 -49 58q-20 9 -44 -5t-41 -14q-106 1 -237.5 -18t-236.5 -48q-3 2 -14.5 12.5t-20 17t-21 8.5t-18.5 -12q-15 -43 -21.5 -106.5t5.5 -107.5q7 -21 21 -27.5t28 9.5q4 6 15.5 18t18.5 22.5t10 23.5q-2 29 3 64
q71 32 206 56.5t245 28.5q39 1 40 -6q1 -5 -17 -17q-39 -24 -41 -27q-7 7 -38 1q-88 -16 -161 -27.5t-100.5 -16t-53.5 -11.5q-23 -8 -21 -25.5t14.5 -35t23.5 -22.5q28 -13 47 -4q21 10 96 25q17 -9 9 -111.5t-21 -120.5q-13 -30 -85 -14q-12 -6 -9 -16t9.5 -25.5
t4.5 -19.5q2 -20 22.5 -40.5t37.5 0.5q7 9 21.5 10t22.5 6q8 6 30 10.5t34 20.5q19 26 28 64.5t8 91.5t-3 82.5t-8 82.5q82 14 88 14q34 0 41.5 24t-15.5 40zM728 844q-13 -15 -45.5 -24t-72 -14.5t-48.5 -8.5q-11 15 -30 24q-46 22 -53 -53q-7 -65 12 -124q1 -3 2 -5
q15 -39 36 -59q13 -10 25.5 -5.5t20.5 16.5q22 -1 51 13l49 20q49 19 70 33q-1 10 1.5 15.5t9 12.5t9.5 13q1 3 19.5 34.5t25 54t0.5 41.5q-4 11 -35 20.5t-47 -4.5zM586 667q-5 11 -6.5 16.5t-3.5 17t-6 27.5q9 2 51.5 15t67.5 15q5 -3 2 -9l-34 -61q-25 -4 -71 -21z
M600 965q-54 -8 -138 -29q-41 -11 -47 -24.5t18 -48.5q27 -38 80 -15q55 25 100 33q-2 -30 5 -46t32 -7q10 3 25.5 24t22.5 25t12.5 10t8.5 8.5t13 4t28 0.5q19 3 41 -3t31 -9t26 8q22 20 17.5 44.5t-37.5 36.5q-5 1 -16 8.5t-17.5 9.5t-17.5 -6q-10 -5 -34.5 -5t-37.5 -3
q-3 5 -10 16t-11 16.5t-11.5 13.5t-16.5 13t-20 8q-55 14 -68 -33q-10 -17 22 -50zM173 691q-14 -108 -20 -255t3 -282q6 -60 19 -75q21 -22 34 1q0 6 9 12.5t18.5 11.5t14.5 17t-2 30q-6 40 -9 87t-3 70.5t1 89t1 78.5q1 181 26 237q18 39 -10 67q7 9 27 33.5t31.5 40.5
t21.5 41.5t8 48.5q-3 31 -44 69q-41 40 -149 -143q-7 -11 -23 -38t-20.5 -35.5t-16.5 -29t-16 -29t-12 -26t-12 -30t-9.5 -30t-10.5 -36.5q-6 -19 -4.5 -28t4 -13t10.5 -1t14 6.5t16 9.5l9 6t8 4.5t8 3.5q20 7 47 45t31 42z" />
    <glyph glyph-name="uni5149" unicode="&#x5149;" 
d="M142 895q-8 -26 -8 -47.5t3 -35.5t18 -33t24.5 -28.5t34.5 -32.5q14 -14 24 -20.5t25 -9t27 7.5q30 19 6 55q-10 16 -36.5 81t-52.5 82q-23 15 -40 10t-25 -29zM504 739q-2 39 3.5 88.5t7.5 76t-7 78.5q-1 18 -41 41t-59 13q-27 -27 -24 -217v-17l3 -153
q-53 -10 -93 -20.5t-100.5 -28.5t-79.5 -23q-30 -12 -25 -42.5t25 -43.5q15 -21 41.5 -30.5t51.5 1.5q47 23 156 51q-46 -44 -103 -105t-106 -109q-74 -72 -115 -135q-38 -57 -29 -70q11 -9 35.5 9.5t51.5 42.5t37 26q68 45 135.5 107.5t157.5 157.5t122 126q97 25 137 29
q71 6 59 62q-7 11 -11.5 17t-13.5 16t-17.5 15t-20 10t-25 4t-28.5 -6q-23 -8 -64.5 -17.5t-61.5 -15.5q-1 12 2.5 16t15.5 7q51 30 130.5 90t122.5 86q12 2 19.5 15t11.5 16q15 12 -8 49q-24 38 -50 38q-16 1 -26 -21q-12 -30 -48 -61q-64 -54 -169 -173zM554 508
q-49 3 -49 -42q0 -27 -24.5 -98t-24.5 -115q0 -127 49.5 -175t178.5 -52q144 -4 209.5 10.5t108.5 70.5q24 31 8 63q2 21 -22 50.5t-24 47.5q-2 9 0.5 30.5t2 37.5t-8.5 21q-18 5 -27 -39q-2 -11 -10.5 -52t-14.5 -71q0 -9 -21 -19q-52 -27 -143 -30.5t-144 15.5
q-13 4 -22 8.5t-15 12t-10 13t-5 17t-1.5 18.5t2.5 24t5 26l7 31.5t7 34.5q5 23 24.5 52t22.5 53q6 52 -59 57z" />
    <glyph glyph-name="uni5168" unicode="&#x5168;" 
d="M354 961q-86 -116 -185.5 -237t-157.5 -200q-44 -60 -39 -92q6 -5 28 11t28 13q11 -2 19.5 9t14.5 12q10 2 32 27q45 51 102 106t100 108q28 35 73 79t74 85q1 4 3 6t4 1q19 -3 35.5 -19.5t28.5 -21.5q16 -7 49 -48q38 -47 134.5 -115t180.5 -115q41 -23 60 2q18 25 66 9
q13 -9 32 3t17 24t-17.5 24.5t-37.5 26.5t-31 23q-19 18 -104.5 65.5t-100.5 60.5q-11 9 -46 32.5t-53 41.5q-47 48 -116.5 88.5t-132.5 40.5q-21 -7 -32.5 -17.5t-27.5 -32.5zM615 336q13 3 18 11.5t7 22t5 20.5q4 18 -0.5 28.5t-21.5 24t-19 15.5q-16 3 -24.5 2.5
t-27.5 -6t-26 -6.5q0 19 5 102q17 7 45.5 13.5t44.5 15t25 28.5q12 27 -4 53t-41 29q-3 0 -16 5t-22 7t-17 -5q-44 -22 -218 -52q-37 3 -39.5 -27.5t17.5 -48.5q4 -4 17 -19t20 -21t23.5 -11.5t36.5 -3.5q0 -35 -2 -101q-10 -4 -38.5 -9t-43.5 -12.5t-15 -22.5
q0 -16 10 -37.5t24 -29.5q5 -3 16 -11.5t21 -11.5t25 -1q-1 -17 0 -49t1 -44q-78 -9 -164 -31q-17 -5 -17 -22.5t8.5 -33.5t16.5 -23q1 -1 6.5 -5.5t7.5 -6t7.5 -5.5t9 -5.5t9 -4t9.5 -3t9.5 -1.5t10.5 0.5t11 3.5q30 13 152 22t223 -1q24 -3 46 12q20 14 24 32.5t-6 35
t-23 29.5t-26 21q-12 7 -29 7.5t-38.5 -2t-35.5 -1.5q-8 1 -38 -1t-47 -1q-2 12 -2 110q8 3 90 26z" />
    <glyph glyph-name="uni5199" unicode="&#x5199;" 
d="M782 990q-272 21 -574 -26q-5 2 -14 9.5t-15 12t-13.5 4t-12.5 -9.5q-15 -26 -29 -211q-3 -33 16 -64q19 -32 38 -7q4 5 13 14.5t13.5 15.5t9 16t4.5 21q0 85 4 119q72 25 197 37t241 12q139 0 143 -13q-6 -13 -48 -50t-47 -52q13 -7 65 17t61 22q23 7 49 2t46.5 1.5
t20.5 33.5q2 25 -16 56q-53 92 -97 59q-16 -13 -55 -19zM336 326q-32 -5 -71 -16t-100 -32t-65 -22q-19 -2 -25 -13.5t6 -28.5q68 -83 162 -34q36 19 75 35t57.5 22.5t74.5 23.5t69 21q21 7 38.5 11.5t31.5 7t21.5 3t19.5 1.5t15 1q17 13 19 22.5t-15 32.5q0 7 -29.5 14.5
t-37.5 1.5q-203 -45 -246 -51zM320 402q48 25 210.5 57t196.5 44q6 1 10 0.5t6 -3t2.5 -5.5t0.5 -8.5t-0.5 -11t-1.5 -14.5t-2 -17q-9 -109 -37.5 -178t-85.5 -107q-36 -8 -116 23q-17 6 -20.5 -1.5t6.5 -20.5q18 -25 17.5 -57.5t19.5 -46.5q13 -12 22 -18.5t22.5 -5
t19.5 3.5t27.5 12t32.5 15q17 14 37 11q43 -4 95 66.5t64 121.5q39 159 25 265q-1 6 -4.5 11.5t-9.5 10t-12 8t-15 6.5l-15 5t-16 5t-13 4q-20 6 -44 -7.5t-44 -12.5q-140 6 -336 -31q-25 -5 -25.5 13.5t13.5 45.5q38 89 42 99q28 -16 47.5 -15.5t84.5 13.5q12 3 19 4
q77 16 110 35q23 14 15 46.5t-30 36.5q-3 0 -21 9.5t-30 4.5q-13 -10 -44.5 -18t-71.5 -15t-51 -10q1 13 -25 41.5t-41 18.5q-17 -6 -23 -43q-9 -50 -23 -88t-39 -92.5t-42 -97.5q-4 -12 -6 -23.5t-1.5 -18t1.5 -14t1 -8.5q0 -17 22.5 -36t34.5 -24q11 -4 41 12z" />
    <glyph glyph-name="uni521B" unicode="&#x521b;" 
d="M728 814q-31 -8 -41 -38t-10 -85v-32.5v-39t0.5 -36.5t2.5 -39.5t4.5 -32.5t7 -32t10.5 -23q11 -36 40 -25q24 9 30 38q2 11 0 21q-20 94 -8 250q2 24 -8.5 48.5t-27.5 25.5zM966 987q-15 17 -29 28t-19 15q-13 14 -41.5 7.5t-24.5 -27.5q20 -108 25 -258t-1 -436
q0 -17 -0.5 -41t-0.5 -35t-1 -27t-3.5 -22t-7 -14.5t-11.5 -10.5t-18 -4t-25 -1t-34 4t-19 -5q1 -4 22 -32q14 -18 10 -24q-1 -12 9.5 -27.5t12.5 -23.5q3 -13 11 -15.5t19.5 3t23 12.5t24 13.5t20.5 6.5q21 5 44 35q13 17 22 50t12.5 85t5 94.5t-0.5 113.5t-3.5 106
t-5.5 107t-5 83q-2 42 -2.5 92t-2 84t-6.5 64zM378 612q-1 0 -57.5 -7.5t-76.5 -4.5q-32 21 -62 -10q-27 -28 -22 -251q3 -113 16 -146q66 -171 370 -114q22 4 34.5 16t23 32.5t19.5 30.5q15 16 13.5 40t-20.5 39q-9 1 -14.5 44.5t-13.5 44.5q-5 1 -9.5 -6.5t-8.5 -22.5
q-17 -69 -31.5 -84t-77.5 -29q-47 -9 -90.5 -9.5t-77.5 16.5t-42 50q-4 18 -5.5 42.5t-1.5 44t2.5 52t3.5 46t5 47.5t4 36q7 3 50.5 26.5t65.5 28.5q12 -19 10.5 -84.5t-12.5 -87.5q-2 -10 -31 -31.5t-25 -34.5q5 -17 31.5 -17t51.5 9.5t34 17.5q13 8 21.5 24t11.5 28.5
t6.5 41t5.5 38.5q8 45 3 115q4 16 -28 32t-52 5q-16 -8 -24 -8zM517 648q17 -18 44.5 -2.5t32.5 13.5q15 -9 30 -9t26 21q7 13 -27 44q-14 12 -65 57t-78 67.5t-69.5 53.5t-76.5 49q-24 33 -40 34t-37 -35q-46 -84 -103.5 -177t-93.5 -160q-35 -60 -25 -90q6 -5 23.5 13
t24.5 17q10 1 18 12.5t14 13.5q19 15 53.5 68.5t39.5 57.5q17 20 52.5 78.5t52.5 77.5q29 -12 59 -56t40 -54q24 -24 105 -94z" />
    <glyph glyph-name="uni521D" unicode="&#x521d;" 
d="M370 1007q-10 6 -34.5 9t-57.5 4.5t-46 3.5q-29 3 -33.5 -22.5t13.5 -43.5q20 -24 47 -38q50 -13 82 -29q34 -26 47 -7q26 44 22 66.5t-40 56.5zM683 559q79 140 90 156q41 20 63 34q26 15 34.5 8.5t6.5 -35.5q-1 -15 -4.5 -63.5t-4.5 -61.5t-4.5 -52t-6 -52.5
t-7.5 -43.5t-10.5 -45t-13 -38t-17 -41t-21.5 -36q-41 -64 -63 -74t-94 1q-23 2 -23 -3.5t12 -20.5q5 -6 7 -9t5.5 -8.5t3.5 -7.5v-7q0 -15 13 -33.5t15 -22.5q5 -11 11.5 -14.5t14 -0.5t14.5 7.5t15.5 9t14.5 4.5q38 2 63.5 15.5t38.5 16.5q14 4 25 10.5t21 19.5t15 20.5
t16 29t15 29.5q78 141 68 500q0 33 -55 79q-24 15 -33 12t-25 -13.5t-29 -10.5q-137 0 -277 -44q-35 -11 -43.5 -25t8.5 -49q2 -3 5.5 -9.5t5 -9t5 -7.5t5.5 -7.5t5.5 -6t7 -4.5t8 -2.5t9.5 -1t11 1.5q7 1 19 5l15 5q-31 -51 -76 -131.5t-80 -138.5q-40 -65 -74 -153
q-22 -55 -6 -61q13 -5 38 34q25 38 49 61q71 64 194 284zM391 335q24 24 12.5 54.5t-44.5 46.5q-26 12 -39.5 2t-6.5 -35q14 -47 48 -71q11 -8 30 3zM425 569q-10 22 -46.5 31.5t-45.5 -21.5q-2 -16 -0.5 -21.5t6.5 -13t6 -12.5q1 -6 9.5 -12.5t10.5 -13.5q0 -4 -9.5 -19.5
t-7.5 -19.5q3 -1 30 10t34 7q28 -7 37 24.5t-11 48.5q-6 5 -13 12zM297 88q11 5 2 58q-6 27 -6 171.5t11 164.5q22 41 -6 66q59 99 91 130q14 14 15.5 25.5t-7.5 20.5t-20 16t-25 14.5t-19 12.5q-18 7 -30.5 0t-26.5 -22t-28 -21q-135 -55 -182 -69q-30 -9 -30 -34t15.5 -47
t30.5 -32q32 -23 88 36q18 20 23 15q10 -5 -97 -199q-7 -12 -24 -45.5t-26 -48.5q-27 -44 -14 -47q10 -2 34 21q18 17 33 28t28 22.5t34 37.5l59 72q-21 -181 -10 -317q3 -44 17 -60q20 -23 33 1q4 10 37 30z" />
    <glyph glyph-name="uni5236" unicode="&#x5236;" 
d="M333 135q0 -79 35 -93q9 1 27.5 19.5t25.5 20.5q7 4 3 47q-6 55 -7 149q25 -30 31 -51q9 -24 18 -26.5t38 8.5q71 23 87.5 54t12.5 127q-5 100 -47 111q-20 5 -39 -6t-34 -11q-20 0 -66 -12q0 51 1 83q114 36 139 31q21 -4 31 -0.5t24 15.5q8 25 -3 49t-37 20
q-12 -2 -28.5 3t-23.5 3q-9 -10 -97 -35q2 44 3 65q8 4 37.5 15t41.5 17q6 3 9.5 8t5 12.5t2 13.5t1 16.5t0.5 15.5q-2 11 -8.5 18.5t-19.5 16.5t-16 12q-10 4 -14 4t-15.5 -4t-14.5 -5q-1 18 5 40t12 37t5.5 32.5t-11.5 30.5q-29 36 -53 36q-31 0 -39 -68q-5 -40 -10 -135
q-8 -2 -26.5 -8.5t-24.5 -8.5q7 20 -23.5 34.5t-53.5 5.5q-36 -15 -107 -195q-16 -41 -2 -61q14 -5 46 36q21 27 37.5 50.5t26.5 36.5t28 33q10 -25 19 -34t31 -21q16 -14 42 -10q-1 -9 -1.5 -30t-0.5 -32q-47 -14 -143.5 -50t-122.5 -52q-24 -13 -24.5 -27t20.5 -36
q24 -24 35.5 -26t47.5 16q120 66 187 86q0 -12 -0.5 -36t-0.5 -38q-47 -11 -109 -33q-32 19 -45 -4t-13 -83q0 -53 3 -68.5t17 -49.5q19 -44 43 -39q14 -2 20 11.5t8.5 35t4.5 26.5q0 13 -7.5 41.5t-6.5 45.5q69 34 84 40q-1 -73 -1 -240zM417 303l1 109q2 1 33.5 16.5
t42.5 13.5q7 0 10.5 -28.5t0.5 -64.5t-13 -51q-9 -2 -22.5 -1t-32 3.5t-20.5 2.5zM744 494q0 36 4 99.5t4 110.5t-8 82q-3 13 -32.5 28.5t-43.5 7.5q-9 -13 -12 -53t-2 -78t0 -70q-4 -138 10 -200q12 -23 60 7q20 12 20 66zM844 992q5 -25 8 -48t5 -55t3 -54.5t1.5 -71
t0.5 -76.5v-100v-115q0 -158 -3.5 -209.5t-22.5 -112.5q-6 -8 -15 -11.5t-16 -4t-25.5 0t-31.5 0.5q-31 -1 -11 -24l10 -10q21 -21 17 -27q1 -12 12.5 -26.5t13.5 -23.5q5 -10 10.5 -14t12.5 -2t13 6.5t16 12.5q11 9 44 22t47 39q18 20 28.5 71.5t13 134.5t2.5 142.5
t-3.5 158.5t-3.5 119q-5 142 -1 186q3 29 -2 49.5t-10 27.5t-21.5 20t-21.5 18q-14 14 -44 7t-26 -30z" />
    <glyph glyph-name="uni523B" unicode="&#x523b;" 
d="M660 762q-20 -27 -28.5 -68.5t-8 -86.5t1.5 -99q1 -24 14.5 -56t28.5 -30q32 5 48 21.5t12 52.5q-6 47 2 126.5t4 114.5q-14 35 -33.5 43t-40.5 -18zM716 156q-20 3 -24.5 -1.5t-1 -10t14.5 -18.5q5 -6 7.5 -9.5t6 -8t4.5 -8t0 -6.5q0 -12 11 -29t13 -23q11 -34 57 2
q13 10 49.5 22.5t52.5 36.5q39 60 46.5 204.5t0.5 338.5t-3 267q3 57 -8 68q-13 15 -21 22.5t-16.5 13t-16.5 12.5q-16 15 -49 7.5t-25 -30.5q20 -56 22.5 -344.5t-6.5 -423.5q-3 -58 -29.5 -74t-84.5 -8zM264 584q83 104 117 161q15 6 66 24.5t78 30.5q12 5 15 28.5
t-5 35.5q-3 3 -11 10.5t-10.5 9t-9.5 5t-13 2t-17 -4t-26 -8.5q14 25 7.5 51t-33.5 46q-22 28 -56 39.5t-69 -8.5q-21 -16 -13 -44.5t34 -33.5q14 -3 20 -13t10 -32t6 -28q-39 -8 -106 -29t-105 -29q-27 -6 -31.5 -18.5t6.5 -32.5q1 -10 6.5 -18.5t10.5 -12.5t14 -10.5
t12 -8.5q8 -7 20 -8t21.5 1t24.5 6t21 5q-8 -14 -28 -50.5t-36 -62.5t-32 -45q-33 -39 -4 -64q4 -3 10.5 -9.5t10 -9t13 -2.5t24.5 5l82 28q-16 -25 -72 -106t-87.5 -135t-54.5 -111q-9 -22 -7 -26.5t8.5 -2t16.5 9.5q5 4 7.5 5.5t6.5 3.5l6 3q9 1 16.5 10t12.5 11
q6 1 23 25q45 65 101.5 135.5t96.5 135.5q26 41 70 98t72 107q9 17 9 31t-5 22t-17 20q-20 21 -33.5 17t-32.5 -34l-76 -122q-12 -2 -43 -12.5t-50 -8.5q-3 4 8 18zM432 479l-38 -67q-24 -42 -110 -200q-30 -54 -18 -79q6 -3 20 13.5t27 33t17 14.5q16 9 36 37.5t27 35.5
q2 -2 13 -11.5t20 -19t10 -16.5q8 -17 19 -31.5t24 -23.5t26 -4t22 26q17 43 5 69t-58 59q-26 20 -35 21q3 5 33 43t38 62q6 18 -8 43.5t-28 30.5t-42 -36z" />
    <glyph glyph-name="uni524D" unicode="&#x524d;" 
d="M343 1008q-43 -54 11 -130q3 -19 27.5 -30.5t36.5 8.5q4 19 -3 56t-7 52q0 35 -22.5 51.5t-42.5 -7.5zM701 151q-3 -3 -24 -2t-37 2t-20 -5q-3 -5 14 -25t14 -27q0 -11 10.5 -26.5t11.5 -23.5q7 -17 20 -15.5t24 10t26 17t25 6.5q86 15 77 266q-1 26 -5.5 100.5
t-5.5 106.5t0 99q2 31 -5 47.5t-26.5 31t-23.5 18.5q-13 14 -41.5 7.5t-24.5 -27.5q11 -60 13.5 -107t4.5 -182q2 -189 -3 -230t-24 -41zM592 605q-15 -16 -17.5 -44t1 -55t-2.5 -59q-14 -65 5 -88q6 -3 13.5 -19.5t16.5 -17.5q54 21 42 108q-2 27 -2 39.5t2.5 35.5t2.5 34
q-11 51 -19 60q-7 9 -22 15q-11 1 -20 -9zM568 853q20 16 94 55t100 76q2 17 -21.5 37t-49.5 23t-42 -19q-12 -22 -37 -53t-60 -71.5t-46 -53.5q-218 -17 -397 -61q-54 -13 -62 -29.5t23 -64.5q21 -30 45.5 -33.5t66.5 15.5q79 35 206 57.5t214 29.5t217 13q28 1 71 -12.5
t65 -2.5q17 18 22 37.5t-6 37t-38 26.5q-5 2 -17.5 11.5t-20 11.5t-22.5 -5q-16 -14 -67 -10t-238 -15zM302 638q-17 25 -41 18.5t-32 -43.5q-19 -92 -48 -354q-6 -52 1.5 -115t31.5 -64q4 3 17.5 17.5t34.5 22.5q7 8 7 31.5t-2.5 52.5t-1.5 42q67 23 125 38
q0 -7 -0.5 -27.5t-1.5 -33t-2.5 -29t-6 -27.5t-10.5 -16q-3 -3 -18 -2.5t-23 -3t0 -15.5q11 -7 16.5 -18t10 -29.5t6.5 -24.5q14 -13 38 3.5t37 15.5q27 8 43.5 31t21.5 53.5t7.5 68t0.5 74t1 70.5q4 73 -21 238q-6 38 -37 55t-58 -9q-11 -11 -46 -12.5t-50 -7.5zM272 332
q0 20 2.5 47.5t2.5 35.5q59 12 94 30q11 5 15.5 26.5t-3.5 32.5q-3 14 -16 13q-32 -2 -82 -16q0 29 13 65q3 1 33 21t50 22q10 -7 12 -65q3 -96 3 -181q-19 -2 -68.5 -16t-55.5 -15z" />
    <glyph glyph-name="uni529E" unicode="&#x529e;" 
d="M419 913q0 -43 -15 -102q-50 0 -153 -24q-22 -6 -32.5 -9.5t-17.5 -11t-6 -18.5t9 -29q16 -40 66 -54t100 10q-24 -100 -72 -205.5t-90 -175t-110 -173.5q-18 -26 -14 -33t24 7q10 7 47.5 35.5t48 37t40.5 33t43 39.5t35 39.5t38 50t32 55.5q71 133 118 327
q122 31 142 26q12 -3 16 -26q16 -119 -24 -283t-90 -220q-36 -41 -63.5 -43t-93.5 28q-32 14 -31 -1q1 -7 25 -50q14 -27 9 -33q-3 -24 15.5 -45.5t32.5 -21.5q13 0 55 15.5t61 11.5q55 7 97 52.5t68 107.5q40 94 64 273q10 -12 21 -40t18 -39q31 -52 47 -52q46 0 67 53
t-8 93q-46 60 -93 95q-23 19 -41 12q6 62 -14 117.5t-66 75.5q-22 13 -48.5 0.5t-42.5 -9.5q-54 11 -101 9q1 28 14 60t4 65q-5 18 -49 46t-63 13q-13 -10 -16 -29t-3 -60zM126 551q-17 8 -29.5 0t-18 -26.5t-7.5 -34.5t-2 -32q11 -26 38 -52.5t50 -36.5q12 -7 19.5 -3.5
t9.5 8l6 13.5t8 13q9 8 4.5 33.5t1.5 37.5q1 5 6.5 15.5t8 20.5t-0.5 18q-7 4 -21.5 -6.5t-21.5 -7.5q-5 2 -23.5 20t-27.5 20z" />
    <glyph glyph-name="uni52A0" unicode="&#x52a0;" 
d="M434 230q50 61 85 189q28 99 22 300q0 9 -2.5 17t-5 13t-8.5 12.5t-9 10.5t-12 11.5t-12 11.5q-12 12 -23.5 13t-19.5 -4t-18.5 -11.5t-19.5 -6.5q-19 0 -24 -1q33 49 60 107q5 11 7 20.5t2 16t-4.5 15t-6.5 11.5t-10 12t-10 11q-27 22 -42.5 16t-33.5 -43l-89 -175
q-80 -4 -156 -22q-37 -9 -45.5 -22.5t5.5 -49.5q6 -12 7 -14.5t6 -11.5t7.5 -10.5t8 -6t10.5 -5t13 -0.5t18 2q6 1 27 6t33 7q-9 -16 -53 -94t-60 -108t-42.5 -87t-42.5 -105q-12 -25 -6 -28.5t10.5 -1.5t17.5 12q5 4 8 6t7 4l6 3q8 0 15.5 12.5t12.5 13.5q7 3 22 28
q41 69 114.5 180t123.5 209q7 2 28 12.5t39 16.5t29 2q7 -30 -11.5 -150.5t-29.5 -149.5q-39 -103 -87 -142q-10 -9 -23.5 -10.5t-22 0t-31.5 6.5q-28 7 -31 0t9 -20q4 -7 6 -11t4.5 -9.5t1.5 -9.5q-1 -14 10 -32t12 -24q3 -12 8.5 -15.5t13 -1.5t14.5 6.5t15.5 9t14.5 4.5
q35 1 58 12.5t38 14.5q24 5 42 28zM975 401q11 34 31 131l21 96q13 50 -5 75.5t-64 38.5q-24 7 -40 -1.5t-25 -8.5q-105 -3 -165 -18q-50 50 -82 30q-39 -24 -36 -176q2 -104 18.5 -167t56.5 -123q17 -12 35 -5.5t24 26.5q42 2 112 11t99 9q9 0 13.5 12.5t6.5 14.5
q9 10 10 28t-10 27zM748 411q-12 40 -14 177q15 2 77 17t76 17q1 -12 1 -22t-1 -21.5t-2 -19.5t-4 -20t-4.5 -19.5t-6 -22t-7 -21.5t-8.5 -25.5t-9 -27.5q-71 -5 -98 -12z" />
    <glyph glyph-name="uni5341" unicode="&#x5341;" 
d="M461 680q-42 -9 -126 -17.5t-153 -20.5t-112 -34q-17 -18 0 -50.5t34 -44.5q11 -9 67 -31q32 -13 89.5 21t85.5 35q32 2 115 22q3 -52 2 -219.5t11 -215.5q8 -59 24 -59q12 0 18 11.5t9.5 30t7.5 25.5q6 11 14 39t22 40q15 -3 16 275v77v25q26 6 76.5 9t78.5 10
q79 19 117 -16q31 -28 52.5 -29.5t45.5 25.5q12 17 5 45.5t-22 39.5q-13 9 -34.5 26t-31.5 24q-14 5 -46.5 -13t-54.5 -14q-31 6 -59.5 6t-65.5 -3t-60 -3q0 10 1 48.5t2 60t3.5 50t7.5 43.5q3 10 3 19t-3 17t-6 14.5t-9.5 13.5t-11 11t-12.5 11t-11 10q-19 18 -42.5 21
t-39.5 -15q-15 -19 -15 -39.5t6 -52.5t4 -61q-1 -16 -1.5 -42t0 -55.5t-0.5 -69.5z" />
    <glyph glyph-name="uni534F" unicode="&#x534f;" 
d="M384 586q-20 15 -34 -10t-15 -48q16 -48 54 -73q15 -10 26 5t16 16q10 5 11 31t9 33q3 4 10.5 13t11.5 16.5t3 15.5q-8 3 -19 -5t-19 -17t-18.5 -10.5t-17.5 14.5q-4 9 -18 19zM892 472q13 190 13 226q0 9 -1 16.5t-4.5 15t-5.5 12t-8.5 12t-9 10.5t-11.5 12l-11 11
q-21 16 -29 15t-26 -9t-33 -7q-16 1 -50 -1q9 22 13.5 35t10.5 37.5t4 45t-12 35.5q-39 59 -78 25q-18 -16 -23 -58t-8 -53q-5 -15 -18 -69q-146 -1 -162 -27q-7 -12 3 -40.5t18 -34.5q11 -7 28 -8t47 2.5t37 3.5q-31 -94 -60 -169t-46 -112t-53 -111t-56 -115
q-36 -77 -27 -84q13 -2 34 23t28 27q15 8 45.5 47t43.5 47q66 45 181 396q4 11 11 35t11 36q7 1 29.5 8.5t34.5 9.5t28 -4q6 -10 4 -40q-22 -247 -54 -345q-33 -103 -88 -144q-24 -14 -40.5 -12t-45.5 16q-33 16 -38 3q-3 -9 12 -22q11 -10 14.5 -33t10.5 -32q4 -5 10.5 -19
t11 -21.5t15 -11.5t23.5 11q9 8 49 13t42 11q8 6 36.5 15t39.5 27q84 126 101 257q5 -2 22.5 -27.5t36 -44t30.5 -9.5q34 27 38.5 48.5t-19.5 63.5q-29 31 -99 55zM169 163q-2 -85 38 -101q12 2 31 21t25 21q8 3 5 54q-5 100 -4 234.5t6 227.5q59 42 88 75q15 28 -1.5 56.5
t-46.5 29.5q-21 0 -29 1q1 39 5 66t11.5 55.5t10.5 43.5q2 10 -2.5 20t-9.5 15.5t-15 14t-13 11.5q-19 19 -39 11.5t-26 -34.5q-12 -50 -23 -262q-33 -19 -79 -43.5t-73 -40.5q-11 -3 -14.5 -21t9.5 -24q8 -7 17 -20t19 -21.5t29 -11.5q52 -7 87 15q-1 -69 -3 -202.5
t-3 -190.5z" />
    <glyph glyph-name="uni5370" unicode="&#x5370;" 
d="M596 768q39 13 165 64q38 7 46 -5.5t7 -70.5q-3 -239 -78 -283q-22 -13 -102 11q-14 -2 -13 -13.5t16 -20.5q11 -7 20 -31t19 -42.5t26 -17.5q17 -3 63.5 22t64.5 20q33 -1 60 36.5t36 80.5q10 49 17 116t5.5 140t-17.5 104q-9 19 -29 37.5t-45 25t-45 -15.5
q-30 -20 -59.5 -28t-75.5 -15.5t-89 -20.5q-13 32 -54.5 42.5t-57.5 -31.5q-5 -15 -3 -66q4 -105 2.5 -402.5t4.5 -343.5q5 -69 19 -67q7 1 13 22q5 17 30 40t30 40q14 42 15 129q5 212 6.5 357.5t2.5 186.5zM78 772q-4 -66 -2.5 -203.5t18.5 -180.5q-26 -25 7.5 -60.5
t57.5 -33.5q15 -4 46.5 15.5t33.5 19.5q3 2 31.5 17t54 30.5t42.5 42t7 54.5q-9 26 -60 5q-17 -7 -62 -23.5t-63 -24.5q-7 76 -9 141q28 8 54 17.5t56 21t49 18.5q10 7 13.5 31t-4.5 37q-3 2 -9.5 8.5t-10 9.5t-10.5 6t-14 3q-84 -21 -121 -36q1 80 9 142q11 3 46 10t54 12
t46 14t44 20.5t26 26.5q17 15 -20 52t-56 34q-17 -3 -39.5 -15.5t-50.5 -18.5q-62 -14 -66 -14q-29 35 -58 -5q-16 -21 -27.5 -76t-12.5 -97z" />
    <glyph glyph-name="uni53C2" unicode="&#x53c2;" 
d="M507 531q-12 35 -25.5 45t-35 -4.5t-55.5 -58.5q-58 -75 -66 -99q-7 -26 -5.5 -32t22.5 1q10 8 26 13t26 14q1 1 40.5 32.5t58 53t14.5 35.5zM533 441q-14 20 -62 -24t-89 -99.5t-39 -66.5q-11 -27 -5 -33t27.5 5t25.5 10q19 6 45.5 30t35.5 30q83 55 83 99q0 16 -22 49z
M602 302q-12 24 -36 24q-12 0 -30 -34q-27 -49 -99 -126t-97 -116q-30 -45 -24 -49q10 -1 31 11t34 14q20 4 42.5 18.5t35 26.5t33.5 35.5t24 26.5q7 7 22 20.5t26 23.5t23.5 26t18.5 30t6 32.5t-10 36.5zM501 812q70 18 117 26q16 -34 36 -33.5t36.5 23.5t17.5 48
q-11 57 -87 118q-17 14 -45.5 9t-28.5 -28q0 -20 17 -38t20 -28q-24 -3 -54.5 -10.5t-72 -20t-53.5 -15.5q-34 -9 -35 2q0 4 9 11l86 67q21 26 4.5 68t-38.5 51t-35 -10q-60 -81 -115 -165q-12 -19 -34 -31q-40 -22 3 -71q9 -11 17.5 -16.5t20.5 -5.5t19.5 1.5t26.5 6.5
t31 8q16 4 30.5 7.5t22.5 6t9 2.5q-27 -35 -73 -102q-111 -19 -233 -57q-47 -15 -52.5 -27t21.5 -55q15 -21 37.5 -24t42.5 5t48.5 21t43.5 16q-51 -67 -125.5 -178.5t-103.5 -151.5q-46 -64 -31 -75q5 -3 28 20.5t28 23.5q22 8 43.5 28.5t46 52t34.5 42.5q42 45 113.5 142
t104.5 135q32 7 65 13q55 -38 98 -87q123 -139 273 -193q21 -8 30.5 -10.5t18 0t11 6.5t10.5 18q1 7 25 2t26 -1q5 4 44 -7q11 -4 25 15q9 12 -6 24t-35 21t-21 14q-23 14 -95 45t-105 51q-98 59 -166 120q36 7 99 10t96 -6q37 -18 56 -0.5t23 48.5q1 11 -7.5 21.5t-19 16.5
t-28 14.5t-22.5 11.5q-14 8 -34 -5t-39 -9q-71 1 -232 -28q21 15 24 43t-12 53z" />
    <glyph glyph-name="uni53EF" unicode="&#x53ef;" 
d="M456 749q-22 -13 -96.5 -22.5t-93.5 -19.5q-28 21 -49 8t-23 -60q-4 -69 29 -159t79 -88l12 6q147 33 210 55q18 6 18 39.5t-17 41.5q20 72 39 108q18 35 -6.5 66t-61.5 42q-20 6 -40 -17zM404 641q34 9 32 1q-5 -29 -28 -98q-66 -15 -81 -23q-8 13 -12.5 45t-6.5 41
q59 24 96 34zM807 998q-177 4 -380 -12t-296 -38q-45 -10 -61 -20t-14 -29t26 -57q22 -35 49 -40t75 12q112 36 206.5 55.5t222.5 22.5q-19 -13 -12 -46q8 -34 9.5 -86t0.5 -124.5t-1 -91.5q0 -89 -20 -334q-6 -76 -94 -62q-30 5 -32.5 -0.5t10 -22t12.5 -25.5q3 -10 15 -23
t15 -29q4 -19 23.5 -20.5t29.5 13.5q9 13 40 19.5t43 17.5q56 30 68 117q9 66 11.5 321.5t-1.5 319.5q-1 36 -29 58q125 8 154 -10q28 -19 47.5 -12.5t29.5 21t15 35.5q2 12 -6.5 24.5t-19.5 20t-29 18.5t-24 15q-15 11 -39 -1.5t-44 -6.5z" />
    <glyph glyph-name="uni5404" unicode="&#x5404;" 
d="M703 79q32 48 6 69q29 66 71 175q19 48 -5 76q119 -48 135 -15q7 14 14 17t20.5 0.5t22.5 -1.5q10 1 24.5 -2.5t23 -1.5t15.5 16q11 26 -25 41q-31 13 -79 36t-82 37q-56 23 -92 44.5t-94.5 64.5t-106.5 75q18 31 41 63t48 65t34 46q38 51 33 82.5t-59 54.5
q-28 11 -57 -22q-16 -19 -98 -18q8 20 -15 39t-46 17q-16 -1 -46 -28q-80 -71 -186 -191q-16 -18 -22 -26t-11 -21.5t-3 -28.5q12 -2 21.5 1.5t22.5 14t18 13.5q8 -20 25.5 -33.5t36.5 -10.5q17 3 42 -11.5t34 -15.5q21 -3 27 -7q-70 -98 -159 -182t-215 -180
q-42 -32 -19 -35q25 -2 80 26q14 7 55.5 27.5t56.5 28t49 26t52 31.5t45 33t49.5 41.5t44.5 46.5l53 65q10 -8 84 -72t124 -101q-10 0 -28 -10.5t-30 -10.5q-68 0 -102.5 -1t-83 -6t-89.5 -16q-9 8 -22.5 15t-30.5 10t-27 -9q-24 -35 -17 -100.5t27 -131t36 -82.5
q14 -26 34 -48.5t35 -12.5q124 3 298 24q11 2 12 10zM381 289q46 7 88 14.5t73 13.5t38 7q9 1 21.5 3.5t16 3.5t9.5 0.5t6 -2.5v-8t-2 -13.5t-7 -21.5q-13 -44 -55 -118q-47 -2 -149 -15q-8 10 -14.5 28.5t-9.5 33t-8 39.5zM447 774q-110 47 -155 53q18 15 48.5 41.5t55 44
t62.5 39.5q3 -20 15.5 -30t35.5 -2q31 10 33 2.5t-15 -29.5q-3 -4 -5 -7z" />
    <glyph glyph-name="uni5408" unicode="&#x5408;" 
d="M-8 442q11 13 29 18t28 14q50 29 101 76.5t86 91t86 107t86 101.5q28 31 67 48q17 3 28.5 -4.5t22.5 -21t20 -18.5q15 -8 45 -50q38 -51 130.5 -127.5t167.5 -124.5q38 -23 57 -1q7 11 24 10.5t34 -6.5t32.5 -2.5t20.5 22.5q-7 20 -42.5 48.5t-44.5 38.5q-12 14 -91.5 67
t-90.5 65q-11 11 -45 36t-49 45q-33 44 -103.5 93t-132.5 57q-16 1 -43 -24q-110 -102 -223 -242.5t-205 -280.5q-26 -39 -18 -47t23 11zM579 723q-19 0 -109.5 -16.5t-113.5 -16.5q-24 -1 -29 -28.5t7 -48.5q5 -5 12.5 -21.5t17 -26t24.5 -7.5q6 1 26.5 3.5t27 3t23.5 3
t25 4t22.5 4.5t25 6.5t23.5 8t26 9.5q20 9 29 39t-1 57t-36 27zM701 140q26 41 -24 79q37 108 52 156q13 46 -5 69.5t-66 42.5q-27 8 -34.5 5t-19 -11.5t-23.5 -9.5q-8 -1 -43 -3.5t-44.5 -3.5t-36.5 -4.5t-40.5 -7t-34 -9t-38.5 -13.5q-60 37 -78 11q-6 -8 -10 -18
t-6.5 -17.5t-2.5 -20v-19t3 -23t4 -22.5t6 -27t6 -28q5 -22 10 -39.5t9 -28.5t11 -24t11.5 -20t14 -21.5t15.5 -23.5q37 -57 71 -23q40 1 129.5 14t142.5 13q10 0 14 12.5t7 14.5zM538 364q8 2 18 5t13.5 4t8 0.5t5 -2t0.5 -7.5t-1.5 -13t-5.5 -21q-9 -38 -47 -120
q-53 -4 -117 -15q-10 14 -21 56t-14 68q48 13 100.5 28t60.5 17z" />
    <glyph glyph-name="uni540E" unicode="&#x540e;" 
d="M784 457q-183 -2 -301 -38q-49 43 -72 -9q-20 -47 -6 -112q3 -12 7 -22q11 -28 24 -65t18.5 -50.5t16.5 -33.5t28 -41q20 -26 33.5 -29t31.5 13q111 4 287 27q9 1 14.5 13t6.5 14q13 16 8 38.5t-20 30.5q3 10 39.5 91.5t36.5 119.5q0 31 -36.5 52t-74.5 21
q-18 -20 -41 -20zM531 313q39 7 201 42q7 2 17.5 4.5t14 3t9.5 1.5t6.5 -1t2.5 -4t0 -8t-3.5 -12.5t-5.5 -18.5q-13 -42 -58 -120q-41 -3 -148 -17q-22 63 -36 130zM488 859q53 10 106.5 22.5t84 22t36.5 12.5q13 7 34 12t35 12t24 24q17 14 -15.5 51t-52.5 37t-34 -13
q-11 -10 -117 -40.5t-127 -25.5q-44 49 -88 -74q-4 -11 -10.5 -30t-8.5 -25q-36 -86 -104.5 -261t-86.5 -235q-11 -38 -55 -161q-37 -97 -12 -109q7 -1 19.5 19.5t24.5 42t18 21.5q22 14 38.5 41.5t37 76.5t24.5 57q38 79 112 259.5t117 263.5zM484 672q-27 1 -37 -10
t-5.5 -27t14.5 -31.5t20 -24.5q13 -11 22 -16.5t29 -9.5t42 5q26 7 95 24t124 31.5t82 25.5q13 5 21 29t-3 47q-19 31 -71 41q-21 4 -39 -8.5t-38 -16.5q-39 -7 -126 -29.5t-130 -29.5z" />
    <glyph glyph-name="uni548C" unicode="&#x548c;" 
d="M352 735q0 29 1 45.5t4.5 35t4.5 29.5q17 5 56 18q10 1 13.5 15.5t6.5 17.5q10 21 2.5 43.5t-23.5 30.5q-2 1 -7.5 7.5t-10.5 9.5t-12 0q-46 -5 -97 -14.5t-84 -11.5q-26 -2 -36 -16t-5.5 -32.5t13.5 -35t19 -25.5q5 -3 20 -16t28 -15q3 -39 3 -119q-27 -8 -86.5 -29.5
t-90.5 -29.5q-20 -4 -28.5 -13t-6.5 -21q11 -40 21.5 -52.5t40.5 -30.5q14 -11 36 -8.5t37.5 8.5t37 15t34.5 11q-31 -41 -106.5 -129t-118.5 -159q-18 -28 -10 -36q6 -5 28 9t29 11q11 -2 20.5 9t14.5 12q8 2 30.5 22.5t46 44.5t27.5 27q17 13 47 47q0 -6 1.5 -76
t-2.5 -120.5t-17 -58.5q-6 -4 -17.5 -4.5t-25.5 -0.5q-15 1 -22.5 0.5t-15 -4t-5 -12t14.5 -23.5q14 -17 17.5 -32t11.5 -28q10 -17 26 -17t29 9t29 23t22 17q57 31 63 124q5 101 0 197q10 -3 32.5 -15t41.5 -19t30 -2q19 16 20 42t-13 48.5t-36 27.5q-34 17 -79 17
q-1 31 -1 93q15 6 36.5 14.5t36 14.5t24.5 11q5 3 8.5 8t5 12.5t2 14t1 17t0.5 16.5q-3 11 -12 20.5t-19.5 16t-13.5 9.5q-17 2 -24 1t-24 -7.5t-24 -8.5zM939 445q40 108 74 228q25 83 -84 111q-18 5 -34.5 -7.5t-28.5 -11.5q-17 -1 -55.5 -3.5t-57 -4t-47 -6.5t-52.5 -12
q-18 22 -47 34q-30 14 -50.5 -4t-26.5 -65q-7 -58 6.5 -159t33.5 -140q4 -8 12 -27t15.5 -34t17 -30.5t20.5 -23t23 -5.5q26 4 33 36q45 3 119 18.5t118 15.5q7 0 10.5 4.5t5.5 12t4 10.5q10 12 7 34.5t-16 28.5zM686 432q-10 30 -16 96.5t-5 85.5q58 15 112 32t83 23
q6 -3 -6 -58q-12 -57 -61 -160q-38 -5 -107 -19z" />
    <glyph glyph-name="uni56E0" unicode="&#x56e0;" 
d="M765 879q14 -145 20.5 -243t3.5 -216t-20 -220q-7 -40 -53 -34q4 10 5 18.5t-2.5 17t-6.5 14t-12.5 14t-13 11.5t-15.5 13q-35 2 -99 -5t-96 -9q-150 -8 -235 -24q-18 -3 -23.5 -16.5t0 -29t15.5 -28.5t18 -16q26 -17 46 -11q34 12 187 24t198 8q14 -14 17.5 -31.5
t10.5 -27.5q5 -3 13 -21.5t18 -19.5q27 -2 63 23t45 28q25 7 37 31q31 65 36 227q8 268 -29 535q-7 59 -35 87q-26 26 -55 12q-24 -12 -43.5 -12.5t-55.5 4t-70 4.5q-63 0 -229.5 -14t-182.5 -22q-20 20 -50 1q-12 -8 -22 -27t-16.5 -49t-11 -58.5t-7.5 -72t-4.5 -71
t-3.5 -74t-3 -64.5q-7 -168 6 -332q4 -49 32.5 -78t56.5 3q4 5 6.5 10t3.5 11.5t1 9.5v13.5v14.5q0 11 -1 136.5t-0.5 211.5t3.5 104q6 39 13 113t9 94q81 20 222.5 41.5t230.5 26.5q53 6 64 3.5t14 -38.5zM589 503q-44 31 -66.5 22.5t-12.5 -51.5q7 -30 48 -64.5t47 -44.5
q21 -37 38 -23q37 26 43 47.5t-15 67.5q-21 24 -82 46zM516 608q134 22 157 22q29 0 43 12t10 35q-10 19 -17.5 30t-27 21t-43.5 5q-16 -3 -48 -7.5t-51 -8.5q-1 15 5 30t8.5 23t-4.5 29q-8 18 -43.5 41t-52.5 10q-16 -13 -16.5 -71.5t-8.5 -77.5q-67 -6 -124 -20
q-28 -8 -25.5 -28.5t17 -41.5t26.5 -28q11 -6 21.5 -8t16 -1.5t18.5 4t19 4.5q-7 -25 -16.5 -49.5t-15.5 -39t-21 -41.5t-18.5 -33.5t-23.5 -39t-22 -35.5q-17 -28 -15 -32q4 -7 21 5q9 7 54.5 33.5t60.5 40.5q80 74 116 217z" />
    <glyph glyph-name="uni56E2" unicode="&#x56e2;" 
d="M596 102q21 1 46.5 -4t41.5 -4.5t30 11.5q11 -11 13 -25t9 -22q5 -3 13 -20t17 -18q27 -2 62 19.5t46 24.5q25 5 39 30q24 45 29 191q11 297 -33 632q-8 62 -35 89q-30 30 -58 14q-32 -17 -44 -13q-56 15 -288.5 -6.5t-289.5 -36.5q-5 15 -19 19t-31 -6q-27 -17 -35 -80
q-21 -136 -29 -374.5t11 -391.5q5 -33 17 -53.5t37 -23.5q11 -1 21 12t10 25q31 -28 63 -19q71 22 357 30zM450 192q-165 -5 -275 -32q-19 423 17 715q86 21 243 41t261 26q59 6 71.5 1.5t16.5 -45.5q19 -192 24.5 -317t-0.5 -296q-1 -28 -14 -119q-5 -38 -65 -30
q1 19 -23.5 41t-55.5 19q-25 -3 -71.5 0t-83.5 -1q8 12 28 16q84 17 93 125q4 59 -9 333q75 14 107 17q28 1 42 13t9 35q-11 21 -19.5 32t-28.5 20.5t-46 3.5q-11 -3 -35 -7.5t-35 -6.5q-1 8 -1 34t-3 43t-12 26q-27 29 -47 30.5t-53 -19.5q-17 -11 -11 -39q3 -13 12 -93
q-108 -10 -225 -40q-27 -9 -24.5 -30t18 -42.5t27.5 -27.5q35 -16 58 -6q26 12 111 28q-209 -258 -211 -260q-46 -57 -40 -84q6 -5 25.5 9t26.5 11q11 -2 21 8.5t14 11.5q12 3 57 48t51 49q15 10 50.5 50t46.5 49q0 -129 -2 -182q-2 -38 -15 -50t-47 -2q-30 8 -31.5 -0.5
t10.5 -22.5q4 -5 5.5 -8l3.5 -7t2 -6q1 -9 12.5 -21.5t12.5 -21.5q2 -12 7 -19z" />
    <glyph glyph-name="uni56FD" unicode="&#x56fd;" 
d="M192 93q68 29 233.5 39.5t260.5 -3.5q7 -9 7.5 -24t11.5 -23q6 -5 14 -24t19 -20q28 -3 65 21t47 27q27 7 40 30q34 59 45 229q17 278 -12 551q-6 59 -35 90q-27 29 -56 14q-30 -16 -47 -13q-101 17 -332 -1q-235 -18 -251 -25q-22 37 -52 13.5t-29 -55.5
q-28 -124 -33 -182.5t-5 -236.5q0 -125 1.5 -168.5t10.5 -102t31 -123.5q7 -21 19 -28t23.5 -2t23.5 17zM193 201q-26 277 17 649q225 50 521 78q41 4 48.5 -1t9.5 -40q16 -194 14 -373t-32 -321q-6 -30 -35 -33q2 33 -20.5 54.5t-61.5 21.5q-95 0 -240 -10t-221 -25z
M726 562q-16 11 -39 4t-23 -28q0 -15 15 -29.5t17 -24.5q6 -36 32 -50t43 18q24 47 -1 71q-12 19 -44 39zM527 636q0 10 2 40t0 40q4 1 18.5 3.5t19.5 3.5t17 4.5t16.5 6.5t12 9t9 13.5t1.5 17.5t-4 23q-4 11 -10.5 18t-12.5 9.5t-18 6t-18 5.5q-15 4 -19 2.5t-13 -7
t-21 -6.5q-32 -4 -77 -15.5t-76 -11.5q-22 0 -30.5 -9t-3.5 -23.5t11 -26t15 -22.5q23 -31 82 -23v-80q-53 -11 -64 -12q-23 -1 -26 -20t6.5 -37.5t18.5 -22.5q28 -30 67 -21q0 -26 2 -92q-96 -17 -169 -41q-24 0 -8 -38q10 -25 20 -29q1 -1 10 -7t13 -8t12.5 -5t16 -2.5
t15.5 4.5q29 14 134 28t186 6q26 -2 47.5 23.5t8.5 44.5q-12 17 -20.5 26.5t-28 19t-41.5 5.5q-16 -3 -46 -5t-51 -7q-1 17 -1.5 51.5t-0.5 46.5q6 2 32.5 8t34.5 9q9 3 12.5 10.5t6 24t3.5 22.5q0 11 -5.5 18.5t-15.5 15t-14 12.5q-7 7 -56 -6z" />
    <glyph glyph-name="uni578B" unicode="&#x578b;" 
d="M521 980q-8 11 -16.5 16.5t-28 11t-25.5 7.5q-19 7 -27 -2q-35 -17 -102.5 -33t-117.5 -22q-58 -6 -31 -53q19 -34 56 -55q6 -3 11 -5q37 -3 85 8.5t101.5 29.5t73.5 23q16 8 25 28t-4 46zM273 792q-24 31 -43.5 19.5t-18.5 -59.5q0 -10 0.5 -29t1.5 -28q-4 1 -84 -24
q-25 -10 -20 -34.5t23 -32.5q36 -33 74 -22q-2 -24 -9.5 -54t-17.5 -63.5t-13 -47.5q-9 -39 6.5 -41.5t28.5 30.5q10 25 26 41.5t24 32.5q26 50 32 131q32 11 93 28q-2 -78 -2 -149q0 -48 35 -54q11 -2 35.5 22.5t18.5 47.5q-3 11 -1 156q11 5 44 10t47 16t10 38
q-15 22 -41.5 37.5t-57.5 1.5q0 6 4 47q1 10 -15 25t-34 18.5t-30 -16.5q-4 -8 -5.5 -24.5t-2 -41.5t-1.5 -32q-58 -14 -92 -23q3 23 0.5 40t-15.5 34zM607 875q-8 -33 -10 -102t15 -125q8 -19 20 -22.5t23 10.5q4 10 15 22t16 24.5t2 33.5q-3 24 -0.5 54t-1 58.5
t-16.5 32.5q-4 2 -14.5 9t-18 11.5t-16 4t-14.5 -10.5zM863 955q0 56 -28.5 83.5t-69.5 -4.5q-12 -6 -9 -41q11 -147 11 -202t-11 -240q-2 -33 -15.5 -43.5t-46.5 -5.5q-29 5 -31.5 -1t9.5 -20t12 -20q3 -9 14.5 -19.5t14.5 -25.5q4 -17 19.5 -17.5t23.5 11.5q6 8 28 15
q49 16 69 48t21 108q0 15 -5.5 137t-5.5 237zM583 384q-1 10 3.5 26t5.5 25t-6 24q-8 12 -18 22.5t-23 19.5t-27 8.5t-27 -12.5q-16 -15 -17.5 -31.5t3 -45t3.5 -50.5q-5 -1 -54 -9.5t-77 -9.5q-22 -1 -29.5 -14.5t-2.5 -30t15 -32t19 -20.5q11 -11 31.5 -12.5t53 3
t43.5 4.5q0 -31 -5 -86q-139 -7 -264 -31q-16 -3 -17 -20t6.5 -33.5t14.5 -23.5q10 -9 15.5 -13.5t18.5 -11.5t22.5 -6t27.5 3q27 7 62.5 11t106.5 6t109 2h153q25 0 56.5 -7t44 -8t42.5 11q31 17 27.5 41.5t-18 43.5t-33.5 31t-56 10.5t-69 1.5q-36 6 -142 -2l2 94
q11 2 66 10t75 14q9 3 13.5 11.5t8.5 24.5t6 22q1 15 -15 30t-16 19q-8 8 -17 5q-59 -5 -121 -14z" />
    <glyph glyph-name="uni5927" unicode="&#x5927;" 
d="M680 387q-20 22 -50 54t-38.5 42t-25 32t-27.5 43t-27 57q151 34 201 38q40 3 58.5 19t14.5 47q-27 56 -79 76q-20 4 -36.5 1t-43 -10t-35.5 -8t-68 -15q1 24 8 53.5t13 50.5t6 47t-11 49q-39 82 -88 80q-28 -13 -37.5 -53.5t-9.5 -104.5t-3 -85q-2 -10 -3.5 -30.5
t-2.5 -31.5q-123 -22 -231 -53q-27 -1 -31 -32t10 -47q27 -39 55 -54.5t67 -3.5q3 1 35 12t57 18q-25 -98 -81.5 -182.5t-132.5 -141.5q-62 -48 -70 -61q-6 -9 -35 -29.5t-35 -39.5q14 -29 188 64q110 59 165 120.5t100 185.5q18 -53 104 -174q6 -45 95 -121.5t158 -97.5
q21 -6 36.5 -3t23 10.5t17 14.5t17.5 8.5t25 -7.5q10 -6 25 -9.5t26 -9.5q18 -8 34 23q9 9 -8 23.5t-41.5 29.5t-28.5 21q-10 15 -92 54q-85 41 -168 131z" />
    <glyph glyph-name="uni5982" unicode="&#x5982;" 
d="M299 1006q-25 -24 -49 -97.5t-53 -195.5t-34 -139q-18 -5 -51 -15t-60 -17q-21 -6 -33 -10.5t-20.5 -12.5t-7.5 -20t11 -29q23 -40 54.5 -43.5t73.5 21.5q-8 -33 -11.5 -52t1.5 -40.5t23 -28.5q16 -11 58 -20t55 -17q-23 -25 -127 -114q-27 -24 -24 -33t25 0q16 7 69 25
t87 35t57 41q44 -29 85.5 -72t48.5 -76q4 -15 21 -10q53 14 57 91q-18 70 -146 151q45 88 79 273q4 4 14.5 11.5t16.5 13t10.5 16t2.5 23.5q-3 17 -29 9q-1 9 11.5 38t1.5 47q-1 16 -36.5 39t-52.5 12q-12 -7 -15 -32t-3.5 -55.5t-4.5 -43.5q-2 -6 -3.5 -13t-2.5 -13.5
t-2 -9.5q-106 -31 -121 -36q9 25 30 82t36 100.5t28 87.5q8 27 9.5 46.5t-4 34.5t-12 24.5t-20.5 24.5q-19 21 -43 -1zM370 538q-27 -110 -55 -163q-7 4 -28 12t-36.5 16t-20.5 18q-6 13 5 61zM687 247q44 -1 136 12t132 13q9 0 13.5 11.5t6.5 13.5t7 21t0 23l-14 20
q15 41 33 147t28 142q13 46 -23.5 76.5t-87.5 24.5q-13 -16 -35 -17q-123 -5 -190 -20q-14 20 -41 35q-19 10 -34 7t-24 -17t-15.5 -34.5t-9 -45.5t-3.5 -50t0 -48q4 -118 12.5 -161.5t39.5 -115.5q28 -66 69 -37zM710 359q-27 46 -20 229q44 8 104 22.5t92 17.5q7 -2 4 -35
q-8 -90 -51 -220q-38 -1 -129 -14z" />
    <glyph glyph-name="uni5B66" unicode="&#x5b66;" 
d="M576 426q-13 34 -34 44q14 6 54 36.5t59 35.5q17 5 27 21.5t2 34.5q-5 12 -15 20.5t-29 17.5t-24 12q-21 13 -41 4q-27 -12 -141.5 -33.5t-124.5 -23.5q-13 -3 -19 -11t-4 -17.5t7 -19.5t13 -18q22 -24 41.5 -28t31 1.5t37.5 25.5t42 30q36 20 73 32q32 10 29 -9
q-2 -13 -18 -35l-40 -53q-12 9 -42.5 8t-31.5 -17q-7 -10 -5.5 -26t10.5 -21q22 -13 40 -27q-163 -19 -324 -66q-48 -14 -55 -29t22 -56q20 -27 43.5 -28.5t62.5 16.5q150 60 275 76q4 -107 -13 -155q-3 -9 -17 -18t-25 -9q-13 -2 -22.5 -1t-35.5 2.5t-48 1.5q-32 0 -9 -23
q5 -4 15 -13q32 -28 23 -34q-9 -12 11 -27q7 -5 18.5 -15.5t17 -14.5t14 -7.5t16 -0.5t16.5 11q39 34 84 54q30 13 41.5 38.5t18.5 81.5t-7 142q23 3 61.5 6.5t96 5.5t81.5 -6q26 -17 43.5 -9t26 23t11.5 36q2 14 -11 25.5t-36.5 23.5t-30.5 17q-14 10 -33 -3.5t-32 -10.5
q-65 2 -196 -18zM222 951q-50 3 -11 -90q13 -34 20.5 -46.5t27.5 -32.5q34 -35 65 -18q12 7 14 20.5t-2.5 26.5t-9.5 28t-4 22q-34 28 -53 61q-8 28 -47 29zM456 977q-15 7 -25.5 -5.5t-14 -29t-4.5 -32.5q8 -18 28 -38.5t36 -29.5q15 -6 19.5 -3.5t10 11t10.5 10.5
q9 5 9 26.5t7 28.5q2 5 8 12.5t9 14t3 14.5q0 4 -15 -0.5t-27.5 -9t-15.5 0.5q-4 2 -18 14.5t-20 15.5zM70 655q-1 -13 -3.5 -41t-3 -45t1 -38t9.5 -34.5t23 -20.5q12 2 21 11t16.5 22.5t13.5 19.5q8 6 5 39t-1 45q99 46 282 76t321 30q52 0 56 -3t-19 -31l-24.5 -24.5
t-32 -35t-13.5 -25.5q15 -4 65 24.5t63 28.5q10 2 50 2.5t49 9.5q26 26 -8 79q-61 96 -102 57q-13 -13 -53 -22q-74 0 -166 -5q32 26 91 84.5t91 84.5q10 5 17 20t10 19q12 14 -17 48q-32 39 -60 34q-19 -4 -26 -32q-10 -37 -57 -102t-60 -90q-21 -41 -41 -71
q-68 -1 -214.5 -25.5t-211.5 -42.5q-14 -4 -17 -7q-22 23 -37 16.5t-18 -55.5z" />
    <glyph glyph-name="uni5BA4" unicode="&#x5ba4;" 
d="M410 946q-147 -12 -245 -35q-6 8 -23 20q-34 23 -54 -34q-12 -35 -18.5 -92.5t0 -120t30.5 -86.5q17 -16 35 -5.5t21 36.5q1 11 6 22.5t6 16.5t-3 22q-5 13 -6.5 61.5t5.5 58.5q35 20 113.5 37.5t155.5 27.5q11 -30 39.5 -21t38.5 30q14 6 93 10t149 2t62 -9q4 1 -1 -4
t-24 -21q-64 -54 -62 -65q5 -8 46 8q68 25 129 19q57 -5 55 39q-2 43 -43 91q-17 20 -29 25q-20 7 -47 -7.5t-47 -13.5q-121 5 -269 -3q-4 11 -10.5 32.5t-9 29t-9 22t-12.5 19.5t-16 12t-23 9t-30 2q-23 0 -36.5 -26t-0.5 -47q8 -8 13 -17t12 -25t9 -20zM523 185
q-1 11 -2 41t-1 42q13 5 105 24q11 0 15.5 15.5t5.5 17.5q10 14 6.5 35.5t-16.5 29.5q-2 4 -9 9.5t-11 11.5q-12 12 -97 -6q0 40 4 88q41 11 85 20q22 -45 54 -24q28 18 33 59q4 30 -11 51q-63 93 -99 116q91 21 61 87q-6 13 -28 24t-25 13q-12 7 -29 -1q-68 -29 -262 -51
q-9 -1 -16.5 -12.5t-1.5 -22.5q4 -8 7.5 -23t9 -24.5t18.5 -15.5q4 -2 12 -5.5t10 -4.5t7.5 -3.5t7.5 -2.5t6.5 -1t8.5 -0.5t10 0.5q-15 -12 -47 -41.5t-59.5 -51t-51.5 -31.5q-29 -11 -18 -31q-2 -5 -1 -12t1 -10.5t3 -9.5t4 -8.5t5.5 -7.5t6 -7t6 -7t6.5 -7q11 -13 34 -15
t41 5q12 5 100 26v-79q-6 -1 -43 -8t-58 -9q-40 -6 -39 -27q3 -35 12.5 -51.5t30.5 -32.5q9 -11 24 -13t41 2.5t32 4.5q0 -53 1 -74q-163 -12 -253 -35q-17 -4 -17.5 -22.5t7.5 -37t17 -25.5q36 -31 57 -33q13 -2 25 2q108 33 422 33q24 0 54 -6t48.5 -6t36.5 13
q36 25 28 57.5t-58 63.5q-13 8 -34 9t-41 -2t-46 0q-33 4 -135 -3zM519 665q4 -4 15 -16t18.5 -22t12.5 -22q-112 -28 -169 -41q11 9 36.5 33.5t47.5 42.5t39 25z" />
    <glyph glyph-name="uni5C55" unicode="&#x5c55;" 
d="M417 462q-132 -33 -197 -59q-15 -6 -12.5 -20.5t11 -27t15.5 -18.5q4 -2 12.5 -7.5t14 -8.5t16 -5t17.5 3q12 6 26 10q-4 -65 -4 -163q0 -13 -1 -20.5t-5 -12t-7 -6.5t-13 -6t-17 -7q-9 -4 -13.5 -9t-5 -12.5t0 -12.5t3 -16t3.5 -16q13 -53 53 -24q17 6 46.5 16.5
t48 17.5t46.5 20t55 29q20 12 31.5 23t23.5 28t19 25q46 -46 120 -83t152 -58q57 -15 66 0q6 19 17 22.5t32.5 -1.5t34.5 -5q7 -2 11.5 3t10.5 19q4 11 -13.5 20.5t-39.5 17t-24 10.5q-10 10 -123.5 55.5t-123.5 56.5q-39 25 -55 38q24 15 61.5 46.5t51.5 41.5q9 3 14 14.5
t7 14.5q9 10 -10 34q34 8 56.5 4.5t43.5 -1.5t35 15q21 20 17.5 38.5t-19 32.5t-36.5 22q-17 7 -57 -1.5t-51 -8.5q-28 0 -85 -12l19 88q51 12 73 20q11 4 15.5 26.5t-0.5 37.5q-31 41 -65 23q-7 19 -22.5 37t-30.5 19q-21 -6 -31 -16.5t-12 -22t-3 -38.5q-66 -10 -105 -24
q0 49 -3 60q48 13 151 50q19 7 14 43q10 4 18.5 9.5t17.5 15t15 16t14.5 20t12 18t12 19.5t9.5 17q11 18 13.5 32t-5 26t-19.5 21t-34 21q-14 13 -38 5t-47 -4q-19 5 -50.5 3t-48 -4t-47 -8t-48.5 -8q-108 -16 -140 -41q-13 -16 -10 -37t12 -35q-15 -40 -112 -260.5
t-120 -288.5q-38 -107 -61 -163q-41 -100 -17 -110q10 -2 34 40t31 42q22 15 40 44t37.5 74.5t27.5 59.5q29 54 84 186.5t76 175.5q2 -1 10.5 -6.5t10.5 -6t11.5 -3.5t13.5 1l39 10l-2 -61l-70 -14q-22 0 -25 -17t5.5 -34t16.5 -22q26 -28 71 -14zM372 791q12 27 30.5 59.5
t25.5 52.5v13q54 18 210 49q16 5 24 -3q3 -22 -47 -104q-107 -25 -243 -67zM605 582q-2 -11 -7.5 -36.5t-8.5 -42.5q-8 -3 -39.5 -9t-40.5 -10v76zM385 180q8 118 17 176q6 5 12 3.5t8.5 -4.5t8 -9t10.5 -9q4 -3 15.5 -10t15 -9.5t12 -8.5t12.5 -9.5t10.5 -10.5t11 -13.5
t10 -15t11.5 -19.5q5 -12 13 -21q-85 -49 -126 -64q-22 -11 -32.5 -7t-8.5 31zM626 298q-2 2 -38.5 41.5t-59.5 47.5q87 17 166 29q-7 -8 -18 -25.5t-19 -32.5t-18 -35t-13 -25z" />
    <glyph glyph-name="uni5C61" unicode="&#x5c61;" 
d="M877 34q4 71 -15.5 92.5t-97.5 46.5l-33 11q7 13 38 93q109 8 133 -7q24 -16 41 -10t26 20t12 33q2 13 -8.5 24t-33.5 24.5t-27 16.5q-13 9 -32 -2.5t-34 -7.5q-22 1 -76 -2q-7 12 -29.5 26.5t-31.5 5.5q-18 -11 -22 -38q-36 -1 -73 -8q15 21 6 35q18 3 28.5 14.5t14 33
t4.5 40t0 49.5t-1 46q109 16 151 16q30 0 43 9t11 31q-9 18 -15 26.5t-23.5 17.5t-40.5 4q-7 -1 -29.5 -4.5t-34.5 -6.5q13 9 34.5 26t29.5 23q8 2 12.5 13.5t8.5 14.5q11 9 -13 38q-28 33 -49 24q-10 -4 -15 -20q-6 -19 -33 -64t-33 -61q7 50 2 84.5t-32 50.5l97 23
q11 6 16.5 24.5t1.5 33.5l16 16l18.5 18.5t15.5 18.5t15 21.5t9 21t4 23.5q0 14 -32 40.5t-56 16.5q-9 -4 -39 1q-90 16 -240 -10q-36 -6 -51.5 -22t-0.5 -55q-17 -42 -132 -295t-148 -340q-35 -93 -69 -174q-34 -84 -16 -93q7 -1 25.5 30t23.5 31q25 17 45.5 50t42.5 82
t32 68q36 64 92.5 200t87.5 194q11 -23 38.5 -45t49.5 -23q19 -1 27.5 15t3 36.5t-22.5 30.5q-12 11 -37.5 17.5t-45.5 0.5q6 14 9 19q12 -9 31 -6q106 17 125 19q-1 -12 -6 -134q-136 -15 -204 -31q-18 -4 -19 -25t12 -34q23 -26 40.5 -29t52 8t62.5 13
q-20 -18 -61.5 -53.5t-72.5 -65t-55 -58.5q-15 -19 -11 -27q4 -5 23 4t23 6q8 -2 16 4.5t12 6.5q63 35 184 123q0 -47 7 -82q-19 4 -31.5 -5.5t-25 -31.5t-18.5 -28q-70 -8 -182 -35q-46 -11 -51.5 -23t17.5 -54q11 -19 31 -24t36.5 -0.5t42.5 14t37 11.5q-18 -17 -18.5 -30
t11 -31.5t14.5 -28.5q9 -14 27 -16t39 2.5t48 -1.5q-29 -17 -146 -67q-15 -7 -22.5 -12.5t-6.5 -9.5q1 -8 23 -6q10 1 43 3t45.5 3.5t39.5 4.5t41.5 7.5t35 11t35.5 16.5t27 22q48 -13 132 -67q53 -35 63 -24q10 10 11 27zM462 856q6 14 23.5 42.5t20.5 50.5q41 15 191 43
q15 4 18.5 0.5t2 -9t-7.5 -16.5q-5 -8 -7 -13q-14 -27 -41 -60q-75 -10 -200 -38zM666 272q-18 -48 -32 -70q-59 11 -90 11q-12 0 -16 5t-1 12.5t8 14.5t10 12q79 13 121 15zM834 538q-14 3 -37 8.5t-34.5 7.5t-26.5 2.5t-25 -4t-19 -14.5q-4 -4 -5.5 -8t0.5 -7.5t4.5 -6
t8 -5.5t9.5 -4.5t11 -4.5t10 -4q4 -2 114 -69q42 -28 55 -26.5t13 40.5q0 52 -15 68.5t-63 26.5z" />
    <glyph glyph-name="uni5DE5" unicode="&#x5de5;" 
d="M547 304q2 10 10 39t12.5 46.5t9.5 48t7 59.5q3 33 11 65.5t12.5 47.5t3 33t-16 33.5t-47.5 37.5q126 24 178 54q30 18 21 64t-40 52q-5 1 -28.5 15t-42.5 6q-62 -28 -150.5 -43t-169.5 -15q-11 0 -22.5 -17t-1.5 -30q3 -8 8.5 -30t13.5 -34t24 -19q6 -3 18.5 -11
t24.5 -11.5t28 -2.5q11 1 64 7q-11 -14 -11 -51q0 -40 -21.5 -170.5t-42.5 -187.5q-209 -23 -281 -43q-38 -11 -44 -29t16 -56q13 -22 15.5 -27t13.5 -15.5t14 -10.5h19.5t28.5 3t42 10q192 46 486 52q100 2 125 -11q34 -15 51 -14t47 15q10 4 17 43q13 76 -54 89
q-20 4 -45.5 18.5t-39.5 15.5q-26 -16 -136 -19.5t-127 -6.5z" />
    <glyph glyph-name="uni5E02" unicode="&#x5e02;" 
d="M563 660q0 13 5 43t3.5 51t-14.5 31q234 35 302 7q54 -22 64.5 -23t38.5 19q15 6 17.5 38.5t-14.5 41.5q-7 3 -19 10t-21.5 11.5t-21.5 8t-25 3t-26 -6.5q-18 -7 -66 -11t-107.5 -6t-83.5 -5q31 67 -13 111q-3 3 -18 19t-22.5 22.5t-23.5 18.5t-28.5 15.5t-30 3
t-34.5 -8.5q-23 -11 -22.5 -42t22.5 -41q20 -9 38.5 -26t41 -44.5t28.5 -33.5q-87 -5 -235 -27.5t-203 -41.5q-89 -31 -24 -95q55 -54 108 -32q176 73 265 94l5 -125q-63 -11 -155 -36q-6 7 -19 13t-26 -1q-34 -21 -35.5 -149t24.5 -166q3 -5 9 -15.5t9.5 -16t11 -10.5
t17.5 -5q16 0 24 15t13 39t9 33q-23 85 -17 173q84 25 133 34q-2 -329 5 -457q6 -103 16 -104q11 -2 17 24q3 18 32 42t33 44q10 50 13.5 165t2 195t0.5 116q9 2 38 10t52 12.5t36 0.5q16 -14 14 -70q-4 -143 -42 -159q-11 -4 -75 2q-18 1 -21.5 -4t5.5 -18q25 -33 34 -64
q4 -16 9 -22.5t9.5 -8t20 -3.5t30.5 -6l48 18t37 16.5t29.5 18t20 21.5t15.5 28t8 37t5 48t1 62q0 164 -58 192q-32 11 -42.5 8.5t-32 -11t-41.5 -8.5q-29 0 -103 -12z" />
    <glyph glyph-name="uni5E74" unicode="&#x5e74;" 
d="M614 778q0 13 5 41.5t4 44.5q70 16 106 36q26 16 17.5 54t-34.5 43q-4 1 -23.5 12.5t-36.5 3.5q-24 -12 -63.5 -20t-90 -15t-68.5 -10q-21 51 -54 59q-21 5 -32 -19q-10 -22 -48 -51q-45 -34 -118 -110q-35 -36 -29 -46t63 10q36 13 92.5 44.5t85.5 43.5q15 5 21 12
q0 -7 1.5 -13.5t3.5 -11t7 -9.5l7.5 -7.5t10.5 -7.5t10 -6t11 -6t10 -5q10 -5 30 -3q1 -23 1 -91q-16 -2 -53 -11t-58 -10q-26 -1 -35.5 -13t-4 -28t15 -31t19.5 -24q23 -22 43 -27t70 9l-3 -108q-10 -1 -120 -16q-1 7 -24.5 35.5t-50.5 50t-34 8.5q-23 -20 -18.5 -56
t24.5 -55q-176 -23 -189 -60q-6 -17 19.5 -57.5t40.5 -42.5q14 -5 66 10q145 45 285 63v-30q-3 -349 20 -354q12 -2 18 24q5 20 33.5 45.5t34.5 45.5q7 22 9.5 75t2.5 122t1 88q188 25 231 7q19 -8 33.5 -8.5t20.5 2t27 12.5q7 5 12 36q8 66 -48 72q-17 2 -39 13t-34 11
q-11 -10 -51.5 -15.5t-89.5 -8t-61 -4.5q2 118 2 128q9 3 23 7t25.5 7t24 7.5t21 11t14 15.5t5.5 23t-7 31q-5 13 -13.5 19t-27.5 11t-26 8q-14 4 -18.5 2.5t-11.5 -7t-13 -6.5z" />
    <glyph glyph-name="uni5E76" unicode="&#x5e76;" 
d="M297 1014q-18 -28 -19 -56t9.5 -51t34.5 -60q3 -21 29 -30.5t37 9.5q8 14 1 30q-8 22 -16 79.5t-22 79.5q-32 32 -54 -1zM701 613q0 5 -1 21t-1.5 22.5t-2 20t-3.5 20.5t-5.5 17.5t-9 18t-12.5 14.5q3 1 17 3.5t18.5 3.5t16.5 4t16.5 6t13.5 8t11.5 11t5.5 13.5t2 17.5
t-5 22q-2 7 -6 13t-7.5 9t-10.5 6.5t-10.5 5t-14 4.5t-14.5 4q-18 6 -36 -6.5t-35 -13.5q17 23 58 53t65 33q19 2 34 15.5t8 36.5q0 14 -23 35t-49 27q-7 0 -14.5 -11t-15 -27t-8.5 -18q-80 -125 -98 -152q-58 -8 -161 -27t-166 -25q-30 4 -42.5 -6.5t-9 -27.5t13 -34
t20.5 -28q10 -9 15 -13t18.5 -11.5t24.5 -6t34 2.5q-2 -82 -5 -120q-141 -26 -239 -58q-19 -8 -17 -26t12.5 -36t20.5 -24q38 -24 60 -25q15 0 30 7q28 13 115 33q-9 -58 -40.5 -153.5t-39.5 -127.5q-7 -31 -2.5 -42.5t16.5 -1.5t23 34q16 35 42.5 59t40.5 48q41 70 64 205
q87 16 168 25q-3 -84 -0.5 -232.5t2.5 -205.5q0 -23 12 -32.5t40 3.5q31 18 50.5 51t19.5 77q0 50 -0.5 108t-1.5 130t-1 115q123 16 184 6q38 -6 59 32.5t-10 66.5q-2 2 -9.5 8.5t-10 8.5t-9.5 7t-11 6.5t-11.5 4.5t-14 3.5t-15.5 0t-18 -2.5q-24 -6 -74.5 -9t-60.5 -4z
M433 575q-1 17 4.5 59.5t5.5 64.5q53 13 128 27q7 -81 7 -126q-127 -18 -145 -25z" />
    <glyph glyph-name="uni5E7B" unicode="&#x5e7b;" 
d="M516 763q-9 -17 7 -52.5t29 -44.5q15 -12 37 -8q158 31 238 69q25 11 32.5 6t7.5 -29q0 -158 -20 -253.5t-73 -178.5q-19 -30 -33.5 -47t-32 -29t-37 -11t-43.5 13q-22 12 -27 6q-3 -5 9.5 -25.5t7.5 -30.5q-3 -16 7 -35.5t11 -26.5q3 -17 11 -20t16.5 2.5t20 12
t18.5 6.5q30 0 45.5 5t30.5 14.5t34 14.5q16 4 28.5 11.5t23.5 20.5t17 22t19 31t19 32q43 70 60 209.5t6 285.5q-1 7 -2 13t-4.5 12t-5 9t-8 9t-8 7.5t-10 9t-10.5 8.5q-21 13 -29.5 10.5t-24.5 -11t-30 -7.5q-311 18 -337 -30zM456 679q5 11 7 20.5t-0.5 19t-4.5 16
t-9.5 15t-10.5 12t-12 11.5t-10 9q-13 13 -38.5 1.5t-23.5 -25.5q-11 -32 -54.5 -106.5t-45.5 -78.5q-5 4 -24.5 12t-33.5 17.5t-14 20.5q-8 13 21 45q100 113 165 223q45 76 -13 125q-9 7 -15.5 11.5t-12 4.5t-8.5 0.5t-8.5 -6.5t-7 -9.5t-8 -15t-9.5 -17.5
q-12 -22 -52 -84.5t-73.5 -120.5t-47.5 -96q-15 -42 -42 -51q-36 -4 -35 -58q1 -25 20 -28q82 -15 154 -52q-7 -13 -35 -64t-48 -83t-40 -55q-54 -63 -4 -96q4 -3 10 -11t10.5 -12.5t14 -7.5t21.5 5q40 21 124.5 61t126.5 62q8 -21 32.5 -18.5t33.5 17.5q23 43 17 78t-43 96
q-9 9 -20 15.5t-25.5 10t-24.5 -5.5q-1 -2 -7.5 -13.5t-8.5 -17.5t-5 -16t-1.5 -18.5t6.5 -15.5q9 -11 12 -15l-99 -61q-28 -17 -33 -7.5t13 32.5q169 219 219 325z" />
    <glyph glyph-name="uni5E8F" unicode="&#x5e8f;" 
d="M450 1030q-5 -21 2.5 -33.5t20.5 -17t25.5 -14t13.5 -23.5q-89 -13 -140 -32q-13 10 -22 12.5t-17 -4.5t-14 -18.5t-14 -33.5q-122 -331 -222 -678q-16 -57 -17 -79q0 -24 6 -32.5t15.5 -0.5t17.5 30q13 36 41 67.5t41 63.5q26 63 102.5 274.5t123.5 312.5q39 15 122 35
q9 -21 28.5 -14.5t24.5 25.5q26 6 105 22t100 18q30 2 42 10.5t9 29.5q-25 55 -79 43l-149 -31q-7 50 -56.5 83t-96.5 5q-13 -10 -13 -20zM678 825q-113 -22 -189 -43q-57 0 -17 -87q12 -22 44 -7l157 67q23 4 22 -8q0 -5 -24 -56q-9 -18 -15 -35q-5 -4 -21 1.5t-36.5 15.5
t-27.5 12q-36 10 -38 -26q-1 -35 23 -62q5 -6 11 -9q18 -8 23 -12q-93 -23 -267 -95q-18 -10 -15 -28.5t17 -37t24 -20.5q15 -8 57 13q10 5 37.5 20t33 17.5t25.5 13t25.5 12.5t21.5 10t24.5 10.5t24.5 8.5t31 10.5t33.5 10.5t43.5 13q20 6 53 17q51 17 55 10q4 -6 -10 -31
q-4 -8 -11 -17t-17.5 -22t-16.5 -21q-15 -20 -7 -23.5t26 9.5q60 42 121 45q30 2 45 14t14 43q-1 14 -6 26t-10.5 17.5t-17 15.5t-16.5 15q-14 14 -44 2q-27 -10 -93 -19.5t-96 -17.5q2 6 -1 13.5t-3 13t7 10.5q17 24 41.5 43.5t60.5 41t53 34.5q17 12 15 30q-4 48 -110 66
q-12 2 -31.5 -10.5t-28.5 -13.5zM608 496q-15 -5 -16 -23t4.5 -33t11.5 -24q12 -18 12 -118q0 -157 -32 -183q-36 -9 -92 0q-9 1 -12 -4.5t-0.5 -13.5t6.5 -12q14 -15 19.5 -33.5t22.5 -32.5q19 -16 30.5 -18.5t27.5 13.5q8 11 23 16t23 11q8 7 34.5 15.5t36.5 29.5
q20 41 25 106t-0.5 122.5t-17.5 110.5q7 20 -9.5 45t-42 34t-54.5 -8z" />
    <glyph glyph-name="uni5F3A" unicode="&#x5f3a;" 
d="M257 480q10 -71 -27.5 -181t-74.5 -127q-9 -4 -39.5 2t-37.5 1q-3 -5 7.5 -22.5t6.5 -24.5q-6 -9 12.5 -38.5t27.5 -28.5q10 0 33.5 17t44.5 16q13 4 22.5 8t18.5 9.5t14 8.5t11.5 11.5t9 11.5t8.5 15t7.5 16t8 21t9.5 23q53 130 53 262q0 28 -19 51t-45 30q-25 8 -32 5
t-18 -16t-20 -16q-5 -2 -17 -7.5t-20 -8.5t-15 -3q-8 11 26 43q7 7 46 46.5t62 57.5q12 10 16 38.5t-7 43.5q-2 2 -5.5 7.5t-7.5 8.5t-9 3q53 91 77 115q24 26 18 57t-25.5 56t-38.5 34q-17 8 -47.5 -6.5t-38.5 -16.5q-18 -4 -66 -22q-34 -4 -46.5 -6t-24 -9t-10.5 -18.5
t9 -33.5q20 -52 88 -41q32 22 60 24q-63 -122 -104 -174q-10 -4 -30.5 -7t-30.5 -9t-14 -20q-1 -18 3 -28.5t13.5 -22.5t12.5 -18q6 -10 15 -11.5t24 2t22 3.5q-56 -106 -77 -115q-14 -3 -20 -14t-4 -25t7.5 -27.5t14 -22t15.5 -7.5q19 3 32 8.5t21.5 12.5t29 22t43.5 29
q15 11 22 8zM695 649q-1 8 1.5 36.5t0.5 37.5q2 1 34.5 10.5t40.5 10.5q10 2 14.5 6t6.5 15.5t3 14.5q0 2 0.5 7t0.5 7t-1.5 5t-5.5 4q52 109 58 118q18 23 10 46.5t-25.5 41t-36.5 25.5q-18 3 -45 -13.5t-49 -16.5q-15 0 -32.5 -2.5t-43.5 -8t-35 -7.5q-15 20 -30 27
q-50 25 -63 -61q-12 -79 9 -167q4 -17 9 -29q4 -32 23.5 -49.5t52.5 -6.5q0 -13 -0.5 -37t-0.5 -36q-121 -29 -147 -47q-55 41 -67 -31q-12 -20 26 -95.5t63 -100.5q2 -12 17.5 -24t17.5 -15q16 -6 25.5 -5.5t30.5 5t29 5.5q0 -67 1 -94q-7 -1 -70.5 -13t-88.5 -12
q-43 0 -54 -11t-3 -52q6 -29 15.5 -43t25 -15.5t31.5 2t43 8t51 3.5q46 -3 156.5 19.5t142.5 38.5q0 -17 15.5 -53.5t27.5 -37.5q31 -3 46 14.5t28 54.5q3 29 -35.5 91t-75.5 75q-29 10 -47.5 -8.5t-5.5 -45.5q-91 0 -95 -4q-2 78 -2 109q132 35 147 40q15 13 18 35t-15 38
q36 45 79 117q40 67 -63 111q-18 7 -48 -11.5t-44 -16.5q-15 2 -71 -9zM693 567q75 27 90 25q13 -10 -5 -42q-46 -75 -62 -98q-17 -2 -24 -4q0 76 1 119zM587 422q-26 -4 -49 -12q-22 36 -42 88q40 16 93 33q-2 -78 -2 -109zM732 923q-47 -107 -52 -116q-76 -18 -85 -23
q-5 4 -7 21t-2 48.5v34.5q43 19 98 32q15 4 26.5 5.5t16.5 1t5 -3.5z" />
    <glyph glyph-name="uni5F71" unicode="&#x5f71;" 
d="M442 928q-7 -4 -22 -8t-26 -7t-22 -9.5t-10.5 -14.5t8.5 -23q1 -1 5 -7.5t6.5 -9t7.5 -5t11 -0.5q24 5 66 24q10 4 12.5 20.5t-3 30.5t-16.5 13q-2 0 -17 -4zM339 519q-33 -8 -49 -20q-18 18 -34 14.5t-23 -26.5q-8 -27 10 -78t48 -85q18 -18 28 -18t24 14l19 2
q7 -35 7.5 -98t-3.5 -83q-15 -20 -22 -22.5t-34 3.5q-25 7 -28.5 5t6.5 -25q4 -5 8 -19t7 -26t8.5 -23.5t13.5 -11t22 11.5q13 13 41 18q55 8 70 84q7 28 3 99.5t-19 110.5q5 2 15 5.5t22 7.5t17 6q6 1 7 10.5t3 11.5q28 20 39 34t40 66q8 14 8 26.5t-5 20.5t-16 15.5
t-19 11.5t-21 9t-34.5 -10.5t-31.5 -15.5q-45 0 -99 -17q36 34 53 56q96 28 144 35q31 5 43 15t7 33q-16 32 -53 46q-12 4 -66 -16q1 7 -12 20t-27 21q11 6 44 15t46 26q5 9 -3 20q24 27 49 80t25 101q0 29 -8 42.5t-32 23.5q-18 9 -37.5 0.5t-35.5 -4.5q-36 5 -55.5 4
t-61.5 -6t-57 -6q-48 39 -66 -11t-14 -133q6 -133 53 -193q10 -12 24.5 -7t18.5 21q9 1 28.5 5.5t29.5 5.5q0 -11 -2.5 -20.5t-8 -20.5t-6.5 -14q-90 -14 -309 -88q-16 0 -17 -20t7 -28q40 -51 79 -33q53 25 203 67q-12 -41 -11 -45zM343 384q-11 20 -19 44q-7 4 99 42
q57 21 58 17q8 -5 -16 -60q-103 -31 -122 -43zM353 784q-8 22 -8.5 78t4.5 84q103 33 128 42q36 15 39.5 -5.5t-8.5 -64.5q-8 -46 -37 -102q-9 -2 -56 -16t-62 -16zM196 261q-21 28 -34 25.5t-24 -32.5q-5 -14 -6 -24.5t3.5 -20t8.5 -14.5t13 -16q22 -25 37 -31
q16 -4 20.5 -1t10 14t11.5 15q10 6 8.5 32.5t5.5 38.5q2 5 8.5 15.5t10.5 20t2 17.5q-9 1 -19 -10.5t-17 -23.5t-18 -16.5t-21 11.5zM601 201q12 28 6 72t-33 46q-8 1 -23 3.5t-23.5 3t-32.5 -2.5q-14 -2 -33 -25q-11 -13 6 -25t39 -18q10 -6 31 -30q57 -35 63 -24zM950 947
q10 10 2 33.5t-28 46.5t-33 19q-19 -2 -29 -12t-19.5 -27.5t-22.5 -27.5q-18 -15 -63.5 -73t-46.5 -76q34 -2 116 39t90 43q11 3 19 17.5t15 17.5zM939 677q15 12 -9 48q-26 40 -53 39q-17 0 -27 -20q-16 -32 -55 -75t-60 -73q-31 -43 -26.5 -54.5t55.5 10.5
q35 16 77.5 47.5t67.5 44.5q10 2 18 16t12 17zM863 424q-30 -69 -111 -185t-112 -183q-22 -50 -7 -47q7 1 21 14t58 35.5t58 41.5q32 42 80.5 109t80.5 108q35 50 30.5 90t-40.5 65q-6 2 -10.5 2.5t-8 1t-7 -1t-6 -2t-5 -4t-4 -5t-4 -7.5t-3.5 -8.5t-4.5 -11t-5.5 -12.5z
" />
    <glyph glyph-name="uni606F" unicode="&#x606f;" 
d="M116 312q-21 29 -37 -8q-14 -32 -7 -66q2 -11 -2.5 -40.5t-5.5 -46.5t10 -28q1 -2 6.5 -10.5t9 -12.5t9.5 -8t13 -1.5t14 11.5q13 16 13 40.5t-5 58t-4 53.5q3 34 -14 58zM231 282q48 -130 145 -192.5t269 -60.5q47 1 93 14t63 36q9 11 30 18t33.5 17t9.5 34
q-3 36 -32 54q-64 16 -147 86q-13 10 -21 12t-8 -5t8 -20q9 -14 23.5 -34.5t18.5 -26.5q21 -22 7 -35t-25 -16t-42 -7q-9 -1 -14 -2q-210 -29 -312 94q-15 11 -23.5 41t-21 50t-39.5 17q-41 -4 -15 -74zM557 329q-3 2 -13 9t-14 9t-12.5 5t-13 1t-10.5 -8t-10 -17
q-4 -6 -6.5 -12t-3 -10.5t0.5 -10t2.5 -9t5 -8.5t5.5 -7.5t6.5 -7.5t6.5 -7q24 -28 37 -34q16 -9 27.5 7t14.5 17q9 6 8.5 30.5t6.5 33.5q2 5 8.5 13.5t10.5 16.5t2 16q-6 2 -20.5 -8t-26 -17.5t-12.5 -1.5zM744 445q-13 -22 -0.5 -43t30.5 -21q8 0 16.5 -1.5t17.5 -4.5
t15.5 -6t16 -8t14 -7.5t14 -8.5t11.5 -7q57 -33 75 7q14 33 -8 75q-18 34 -49 40q-83 16 -112 11t-41 -26zM323 926q-35 39 -59 21q-28 -20 -39.5 -118.5t-8.5 -194t12 -130.5q2 -7 9.5 -37.5t11 -43t12.5 -31.5t20 -31q12 -14 31.5 -6t21.5 27q30 4 194 38q8 -20 12 -28
t11.5 -17t18 -7.5t24.5 10.5q32 21 46 50t24 84q15 85 17.5 193t7.5 151q4 28 -9 53.5t-23.5 34.5t-33.5 28q-15 12 -45 -9t-45 -16q-25 1 -62 -3q9 2 17.5 19t10.5 19q12 16 -17 50q-31 37 -57 30q-16 -3 -22 -25q-7 -22 -30.5 -58t-31.5 -50q-7 0 -18 -3zM322 772
q2 39 8 67q134 23 190 46q22 8 29 0t8 -31q-3 -307 -21 -349q-5 5 -11 4q-145 -26 -176 -37q-7 7 -19 62q87 17 164 38q15 10 15 36t-15 34q-1 0 -7.5 5.5t-12.5 4.5q-133 -21 -152 -31q-2 52 -2 65q99 13 160 32q13 7 16 30.5t-10 32.5q-1 1 -4.5 5t-5.5 6.5t-6 4.5t-9 1
q-124 -19 -139 -26z" />
    <glyph glyph-name="uni6210" unicode="&#x6210;" 
d="M303 165q55 15 78 90q21 71 21 205q0 17 6.5 37.5t9 31.5t-4.5 37q-9 22 -43.5 30t-49.5 -13q-21 -33 -44 -38q-13 -3 -38.5 -9t-35.5 -8q3 27 4.5 84.5t5.5 83.5q10 24 -19 66q-30 44 -55 35q-10 -4 -17 -19q-11 -28 -10 -66q2 -42 2.5 -80.5t-1.5 -75t-4.5 -66.5
t-8.5 -64.5t-10.5 -58.5t-13 -59t-14 -56t-15.5 -59t-15 -59q-11 -43 3 -42q12 0 23 29q14 36 40 63t39 53q41 84 53 183q4 1 46.5 18t58.5 18q7 -4 6 -28q-3 -91 -23 -154q-8 -26 -22 -35.5t-41 -8.5q-15 3 -20 1.5t-4 -8.5t5 -14.5t6.5 -16t0.5 -12.5q-8 -31 17 -46t46 10
q13 14 38 21zM459 722q33 -215 132 -382q-40 -66 -132 -167q-53 -55 -48 -63t16 -1q16 11 88.5 45t100.5 70l28 36q65 -85 117.5 -134.5t124.5 -81.5q83 -36 100 2q7 15 9.5 24.5t0.5 18.5t-4.5 15t-10.5 19.5t-13 24.5q-7 12 -5 106q1 26 -13.5 27.5t-21.5 -23.5
q-19 -69 -27 -78q-13 -15 -50 11q-3 3 -6 5q-76 57 -143 158q28 43 55.5 134t36.5 112q13 35 8 52.5t-31 42.5q-27 22 -43.5 10.5t-23.5 -48.5q-17 -89 -59 -198q-69 156 -96 306q10 5 62.5 28t78.5 39q17 14 18 36.5t-15.5 42.5t-39.5 17q-4 -1 -18 0.5t-23.5 -0.5
t-11.5 -9q-2 -6 -16 -14.5t-33.5 -17t-20.5 -9.5q-1 11 -3 34.5t-3.5 39.5t-5.5 34.5t-12.5 29.5t-20.5 14q-40 28 -60 6q-17 -19 -20 -29.5t4 -52.5q7 -30 13 -67.5t9 -52.5q-15 -6 -50 -24.5t-64 -31t-48 -15.5q-26 -5 -34.5 -16.5t-2 -25.5t18 -25.5t23.5 -18.5
q21 -13 37.5 -14t47.5 13q37 19 100 46zM785 926q21 -70 46 -69q8 0 15 5q8 3 12.5 8t9.5 12.5t9 11.5q24 27 3 62q-1 2 -10 17.5t-12.5 21t-13.5 17t-18.5 16t-21.5 8.5t-28 2q-17 -7 -23.5 -17t-2.5 -23t10 -24.5t14.5 -25.5t10.5 -22z" />
    <glyph glyph-name="uni6211" unicode="&#x6211;" 
d="M531 658q19 -126 74 -256q-16 -28 -37 -57t-50 -66t-42 -54q-32 -42 -18 -53q15 -12 59 28q21 19 61.5 40t73.5 65q67 -114 132 -186.5t155 -108.5q30 -20 62.5 -1t24.5 51q-5 17 -16 41t-17.5 52.5t-8.5 78.5q-1 28 -17 29q-15 0 -16 -27q-4 -38 -7.5 -54t-10.5 -25.5
t-18.5 -4t-32.5 22.5q-87 74 -167 226q19 32 41 77.5t34 66.5q15 27 5 70q-18 78 -62 43q-17 -13 -40 -69t-27 -64q-35 101 -45 179q9 7 27.5 14.5t30 17.5t15.5 30q5 25 -13.5 48.5t-42.5 20.5q-5 -1 -18.5 0.5t-16.5 1.5q-5 25 -5.5 74.5t-7 81t-27.5 43.5q-1 1 -7 5
t-9 5.5t-9.5 4t-10.5 2.5t-9.5 -1.5t-10.5 -5.5l-13.5 -13.5t-8 -13t-4 -22t4.5 -31.5q5 -26 11 -87.5t16 -95.5q-109 -45 -157 -67q0 88 -5 94q8 7 24.5 18.5t25.5 19.5t18 24.5t11 39.5q2 22 -17.5 29t-49.5 1t-55 -13.5t-41 -14.5q-10 -4 -40.5 -13t-56 -18t-31.5 -16
q-9 -20 11.5 -57.5t35.5 -47.5q3 -3 8.5 -4t14 0t14.5 2t16.5 3.5t12.5 2.5q7 -64 6 -92q-66 -31 -124 -47q-86 -25 15 -101q46 -36 116 3q2 -62 2 -69q-43 -24 -118.5 -70t-111.5 -67q-36 -11 -40.5 -26.5t17.5 -39.5q19 -23 27 -26.5t39 3.5q45 16 103 60.5t85 58.5
q0 -95 -16 -125q-9 -16 -15 -19.5t-25 -6.5q-1 -1 -16 1q-43 3 -43 -6q-3 -5 14 -24.5t14 -26.5q0 -10 11 -25t12 -24q5 -10 10.5 -13.5t12.5 -1t13 7.5t15 14q12 12 46.5 28.5t48.5 44.5q39 76 29 249q43 51 71 71q13 10 11 39q-1 31 -89 -19q-1 19 -5 62zM768 1000
q-50 56 -70 38q-20 -21 -19 -47t16 -53q9 -8 34 -37q3 -22 14 -28t24 0.5t24 15.5t16 16q13 17 2 62q-6 12 -41 33z" />
    <glyph glyph-name="uni6280" unicode="&#x6280;" 
d="M370 734q10 29 -1.5 60t-38.5 34q-4 2 -17.5 4t-20.5 7q0 17 12.5 56t5.5 55q-6 15 -18.5 33t-28 33t-33 14t-29.5 -24q-11 -20 -5 -88q1 -14 1 -138l-55 -25q-55 -25 -66 -23q-29 -3 -18 -36q16 -49 51.5 -76.5t83.5 -8.5q-1 -20 -1.5 -60t-0.5 -61q-81 -76 -176 -156
q-17 -15 -18.5 -29t11.5 -39q12 -27 33 -27.5t39 22.5q70 87 110 131q-2 -112 -9 -207q-1 -1 -2.5 -5t-2 -5.5t-2 -4.5t-3 -4t-3.5 -3t-3.5 -2t-4.5 -1t-6.5 -0.5t-7.5 1.5t-9 3q-33 12 -33 0q0 -8 30 -47q15 -20 12 -24q2 -35 20.5 -50t38.5 8q8 10 23.5 26t23.5 26
t16.5 30t10.5 46q9 113 9 323q17 46 59 110q7 10 9.5 17.5t1.5 10t-5 2.5t-11 -4.5t-15 -12.5q-27 -24 -38 -37q0 51 1 78q37 27 80 68zM542 242q-38 -24 -236 -110q-52 -23 -13 -22q19 1 80 9q75 10 78 6q45 -6 163 53q85 -69 196 -118q61 -27 69 -10q4 8 20.5 7t22.5 7
q13 12 36.5 5.5t38 -12t29.5 16.5q7 17 -40 50q-33 24 -133.5 77.5t-132.5 75.5q31 47 56 143.5t37 124.5q3 19 -5.5 30t-28.5 20.5t-27 16.5q-12 12 -31.5 8t-36 -13.5t-34.5 -19.5t-27 -11q24 44 42 110q21 8 87 32t101 38q13 10 18 29.5t-6 42.5q-5 7 -10 12t-12.5 8
t-12 4t-15 3t-15.5 3q-16 4 -32 -7.5t-30 -14.5q-15 -3 -41 -14q2 21 12 66t9.5 74.5t-18.5 54.5q-35 50 -82 34q-15 -5 -17.5 -14t1 -21t-2.5 -29q-13 -99 -33 -201q-87 -24 -103 -25q-59 -5 -38 -51q16 -35 55 -59q9 -5 16 -8q14 -5 42 0q-2 -10 -10 -45.5t-13 -53.5
q-22 -9 -22 -21t17 -37q20 -29 38 -24q33 7 116 63q31 21 24 -13q-29 -130 -51 -173q-11 9 -69.5 69.5t-83.5 74.5q-24 14 -69.5 28t-68.5 9q-25 -12 -34.5 -40.5t18.5 -49.5q13 -11 54 -21t50 -19q14 -15 48.5 -70t59.5 -78z" />
    <glyph glyph-name="uni62A4" unicode="&#x62a4;" 
d="M919 562q3 4 1.5 10t-2 8.5t-4.5 7t-5.5 6t-6.5 5t-6 4.5q11 10 23 28.5t27 45.5t17 31q13 23 16 38.5t-5 28.5t-20 21.5t-37 21.5q-22 8 -27 7.5t-19.5 -6t-31.5 -5.5q-72 0 -222 -50q-19 18 -31.5 22t-21.5 -9.5t-15.5 -33t-16.5 -58.5q-1 -5 -1.5 -7l-1.5 -6t-2 -7
q-5 -18 -30 -107.5t-48 -173.5t-28 -112q-7 -40 -26 -105t-19 -111q0 -35 14 -33q13 2 23 35q9 30 31.5 59t32.5 57q56 169 83 265q14 -13 39 -6q58 14 104.5 27t109 33.5t90.5 29.5q7 2 10 8.5t4 17t2 13.5zM790 591q-91 -23 -202 -59q4 12 16.5 48.5t22.5 64.5t12 32
q96 38 194 59q12 3 16 -0.5t3 -8.5t-7 -19l-3 -7.5l-3 -7.5t-3 -9q-12 -35 -46 -93zM826 1024q-16 -9 -41.5 -16t-45 -10.5t-51 -8t-42.5 -6.5q-12 -2 -20 -12t-2 -21q4 -7 7.5 -21.5t9 -22.5t18.5 -12q13 -8 23.5 -11.5t26 -2.5t23.5 2.5t32.5 7.5t35.5 9q65 16 93 34
q13 9 14 27.5t-8 34.5t-23 17q-4 0 -20.5 9.5t-29.5 2.5zM189 106q7 -35 25 -48t40 12q5 7 29 31t33.5 45.5t12.5 58.5q7 105 7 355q12 14 22 35.5t21 36.5q24 35 9 33q-17 -3 -45 -31q-4 -4 -7 -8v79q50 38 91 79q8 21 0.5 48t-23.5 34q-6 1 -21.5 7t-23 7.5t-16.5 -3.5
q36 75 -12 132q-54 65 -88 10q-8 -24 -8 -56t3 -76t1 -78q-4 -1 -36 -16.5t-63.5 -29t-41.5 -12.5q-26 -4 -19 -37q12 -50 58.5 -76.5t98.5 4.5q-1 -36 -1 -115q-8 -7 -46 -41.5t-68 -60.5t-57 -46q-19 -15 -20 -28t12 -39q12 -27 32.5 -28t38.5 22q48 60 108 124
q0 -161 -7 -217q-3 -23 -15.5 -29t-47.5 -3q-22 2 -22 -9q1 -8 33 -43q18 -20 13 -23z" />
    <glyph glyph-name="uni62A5" unicode="&#x62a5;" 
d="M528 959q-13 15 -34 16t-33 -14q-11 -18 -17 -45q-41 -204 -56 -595q-3 -62 1.5 -135t21.5 -111q24 -30 37 0q-1 8 13 14.5t26.5 18.5t7.5 32q35 8 66.5 8.5t63.5 11.5q40 15 60 25q8 -11 36.5 -29.5t53 -32t62 -32.5t39.5 -20q20 -10 31.5 -3.5t15 19t15 18.5t32.5 -5
q51 -28 58 18q1 5 -13 12t-28.5 14t-14.5 10q-30 28 -104 68t-101 61q20 59 42 155t29 122q4 14 -1 24t-12.5 15t-22 13t-21.5 13q-13 11 -32 7t-33 -13t-32 -20t-27 -13q-8 -2 -18.5 -6t-25.5 -11t-27 -11q-26 -10 -28 -20t15 -35q16 -25 33 -20q32 7 99 56q15 10 20.5 4.5
t1.5 -25.5q-13 -75 -39 -162q-28 37 -64 72t-51 41q-27 11 -49.5 27t-29.5 20q10 273 43 352q23 1 44 6.5t34 11.5t42 21t50 25q19 9 28 4q-4 -114 -36 -163q-9 -23 -33.5 -24t-47.5 9q-16 5 -22 4t-5 -7t4.5 -12t7 -13t3.5 -9q-4 -6 10.5 -41t21.5 -33q8 -4 31 1.5t29 3.5
q68 20 102.5 94.5t36.5 172.5q2 39 -50 79q-12 10 -31 -2t-30 -7q-29 -2 -95.5 -15t-102.5 -15zM493 173q-11 105 -4 245q31 -22 44.5 -38t40.5 -62q31 -53 55 -74q-38 -30 -136 -71zM147 120q8 -34 25.5 -47.5t39.5 10.5q7 10 27.5 28.5t30.5 38.5q17 33 19.5 179t-1.5 234
q1 2 42 54t49 83q-1 13 4 22q4 11 -6 8q-4 -2 -11 -6q-34 -19 -79 -57v63q32 28 71 70q9 27 -2 53t-36 27q-19 6 -28 8q33 62 -13 117q-46 51 -71.5 22t-14.5 -96q1 -5 3 -99q-107 -46 -124 -48q-27 -3 -19 -35q14 -47 54.5 -75.5t87.5 -4.5q-2 -54 -2 -86
q-185 -164 -196 -199q-6 -18 13 -46t34 -27q16 1 42 36t35 39q46 35 72 67q2 -167 -6 -233q-3 -23 -15.5 -28t-48.5 -1q-24 3 -21 -9q2 -8 33 -41q16 -18 12 -21z" />
    <glyph glyph-name="uni6444" unicode="&#x6444;" 
d="M264 992q-34 41 -64.5 17.5t-23.5 -82.5q1 -10 4 -21q0 -10 0.5 -24.5t1 -37.5t0.5 -41q-84 -40 -114 -45q-19 -3 -19.5 -21t8.5 -35t19 -27q28 -28 52 -34t52 7v-136q-106 -87 -166 -130q-19 -13 -21.5 -27.5t9.5 -41.5q12 -28 33.5 -31t41.5 20q80 89 103 111
q2 -129 -7 -222q-7 -21 -19.5 -25t-37.5 1q-32 4 -31 -8q1 -9 35 -43q20 -19 16 -23q7 -34 27.5 -48t39.5 11q17 22 29 29q11 6 19 19t13 34t8 39t4.5 47.5t2 45t0.5 45.5v37q0 100 -1 155q24 21 36.5 45.5t19.5 33.5q9 11 19.5 31t24.5 35q19 24 12 31q0 5 -9.5 0
t-29.5 -22t-34 -29.5t-40 -36.5v110q37 26 81 68q9 20 1.5 45t-22.5 34q-9 3 -16.5 5t-10.5 3.5t-6.5 2.5t-8 1.5t-12.5 1.5q14 28 14.5 51t-7.5 38.5t-26 36.5zM510 848q-4 -10 -13 -120.5t-5 -123.5q-63 -15 -114 -33q-12 -3 -10 -14.5t9.5 -24t12.5 -14.5q2 -1 8 -4.5
t8 -4.5t8 -3t10.5 -2t11.5 1.5t14 5.5q61 30 245 56q3 -65 5 -83q-8 -2 -24.5 -3t-27.5 -4t-16 -10q-44 44 -86 19q-20 -12 -39 -16t-46 -5.5t-48 -5.5q-40 -7 -45.5 -18t12.5 -45q18 -32 37 -28q31 7 103 53q14 8 21 5q-14 -69 -50 -139q-73 38 -89 41q-24 5 -23 -21
q1 -28 20 -47q2 -2 4 -3q19 -13 40 -34q-77 -54 -151 -91q-39 -20 -10 -19q14 1 59 8q47 7 49 5q36 -2 112 40q5 -3 17 -18t23 -22.5t19 -0.5q31 27 32.5 52t-25.5 58l42 90q6 -15 36 -43.5t36 -49.5q4 -13 14 -31q-41 -44 -109 -78q-32 -15 -33 -21q49 -4 107 7.5t89 30.5
q53 -46 105 -66q57 -22 66 -6q9 19 20 21.5t32.5 -4t33.5 -7.5q15 -4 24 20q6 6 -5.5 15t-31.5 19.5t-24 13.5q-9 7 -68.5 35t-71.5 38q16 21 35.5 120t23.5 110q10 28 -13.5 49t-58.5 28q-12 3 -32 -12.5t-29 -15.5q-4 -1 -29 -9q3 11 26 29t25 33l4 29q22 10 50.5 6.5
t56 2.5t31.5 28q3 19 -19.5 38t-53.5 11q-9 -3 -20.5 -4t-25.5 -1.5t-20 -1.5q0 28 -2 92t1 84q5 15 -4.5 32t-20.5 23q40 3 62 18t11 52q-3 11 -11 18.5t-15.5 10.5t-23.5 7q-16 5 -34.5 -4.5t-36.5 -11.5q-48 -5 -123.5 -19.5t-121.5 -14.5q-50 0 -36 -40q11 -31 39 -49
q2 -2 4 -3q17 -9 41 -6zM751 292q-13 19 -31.5 33.5t-29.5 27.5q-10 13 -15.5 18t-17.5 10.5t-26 3.5q1 3 7 15.5t8 18.5q14 -18 32 -18t32.5 10t33.5 22.5t32 14.5q3 -21 -7 -77.5t-18 -78.5zM695 880q-2 -30 0 -111.5t-1 -121.5q-61 -7 -129 -26q-1 21 0 39l91 24
q14 15 8.5 33.5t-26.5 22.5q-55 -14 -71 -22q2 31 5 45l85 15q8 4 11.5 18t-1.5 21q-4 7 -7 10.5t-7.5 5.5t-7.5 3t-10.5 -0.5t-13 -3t-19 -5.5t-24.5 -7q1 6 3.5 19.5t4.5 20.5q29 7 109 20z" />
    <glyph glyph-name="uni6536" unicode="&#x6536;" 
d="M211 165q0 -87 41 -105q12 4 28.5 21.5t29.5 22.5q10 4 0 87q16 2 56.5 7t50.5 6.5t39 6t38 7.5t29.5 8.5t32.5 11.5t28 14.5t33 19.5q91 -78 195 -131q57 -29 65 -14q5 9 21 7.5t23 6.5q13 10 35.5 2t36.5 -13.5t29 14.5q9 17 -38 52q-31 23 -137 85t-146 96
q18 40 35 184.5t28 176.5q25 7 54.5 20t53.5 18q29 6 39 29.5t-17 47.5q-4 3 -13 10t-11 8.5t-8.5 5.5t-9 3.5t-8 -1t-10.5 -3.5t-11 -8q-17 -13 -108 -44t-122 -37q56 88 78 149q7 19 8 32.5t-6 24.5t-14 17t-24 19q-18 13 -41 -20q-37 -53 -88.5 -195t-44.5 -188l-20 12.5
t-16.5 10t-13 7t-12.5 5t-10 1.5t-11 -1.5t-11.5 -5.5t-14.5 -9q-13 -10 -20 -32q-15 -8 -26 -18q2 29 5 102.5t7 132.5t12 89q2 9 7 24.5t6.5 23t-1 17.5t-11.5 18q-2 2 -7 7.5t-8.5 9t-9 8t-10 7.5t-10.5 5t-12 2q-23 0 -34 -36q-12 -41 -19 -218.5t-7 -261.5l-91 -75
q-20 121 -16 252q1 37 -25 62q-27 24 -44 -9q-14 -30 -16.5 -80t6 -104t17.5 -96.5t19 -76.5q-9 -8 -25 -22t-21 -19t-12 -15t-6.5 -17.5t4 -19.5t12.5 -28q10 -18 19 -25.5t19.5 -5.5t20.5 11.5t25 27.5q16 20 55 52.5t57 51.5q-1 -70 -1 -225zM546 705q8 -10 22.5 -11.5
t27.5 1.5t30.5 7.5t25.5 5.5q5 -157 -33 -258q-23 19 -68 85.5t-75 79.5q5 5 26 22t27 33t17 35zM306 497q34 40 53 68q5 -3 23.5 -11.5t24 -11.5t18 -11.5t17.5 -15.5t10.5 -18.5t7.5 -25.5q39 -79 89 -130q-62 -41 -241 -101q-1 33 -1 129t-1 128z" />
    <glyph glyph-name="uni65B0" unicode="&#x65b0;" 
d="M84 298q3 -10 -8 -50t2 -53q2 -3 8.5 -13.5t10 -15t11.5 -4.5t17 10q14 15 15.5 41t-2.5 52.5t1 58.5q44 24 105 49q-1 -14 0 -51t0 -71.5t-6 -58.5q-3 -5 -12.5 -7.5t-23.5 -3.5q-13 -1 -19 -2t-11.5 -4.5t-2.5 -10.5t15 -18q11 -10 17.5 -35.5t25.5 -35.5q12 2 34 24
t37 25q24 5 37.5 29t16 60.5t1 71.5t-4 74.5t-1.5 56.5q48 20 80 30q23 7 32.5 17.5t4.5 31.5q-11 13 -18 19.5t-20 14.5t-23.5 6.5t-28.5 -5.5q-18 -7 -31 -15q0 27 -4 44q16 6 36 22t31 21q26 12 29 58q3 28 -39 25q4 4 24.5 30t28.5 32q23 17 25 36t-12 31.5t-35 18.5
q-15 4 -27 -2.5t-17 -15.5t-13 -27t-12 -25q-35 -60 -56 -105q-41 -13 -57 -22q-7 126 -7 151q152 42 212 65q17 6 19 36.5t-14 39.5q-18 18 -28 19t-56 -11q11 26 -3 51t-39.5 38t-57 12.5t-51.5 -19.5q-12 -17 -3 -37.5t31 -20.5q30 -1 48 -40q-24 -5 -80 -21.5t-88 -20.5
q-22 -3 -31 -14t-5 -25t11.5 -26.5t16.5 -19.5q4 -2 14 -10t20 -10q-8 -119 22 -165q-30 1 -41 -12t-5 -31t17 -34t21 -25q16 -7 73 11l1 -5q0 -4 0.5 -13.5t0.5 -20.5q-23 -5 -104.5 -38.5t-117.5 -50.5q-19 -6 -17.5 -26t12.5 -31q35 -35 68 -34zM478 358q-22 17 -68 15
q-42 -2 -41 -25q1 -12 15 -28q49 -58 90 -64q18 -3 32 17.5t6 40.5q-11 27 -34 44zM520 261q0 -55 4.5 -81.5t14.5 -25.5q7 1 13 25t12 26q11 12 16 41q37 205 45 283q41 -39 85 -28l49 12q-7 -224 -3.5 -369.5t17.5 -135.5q15 -2 19 25q3 19 32.5 44t33.5 41q10 33 11 88
q1 318 0 340q16 6 61.5 19.5t63.5 20.5q14 6 22 27t-2 43q-10 16 -23 23t-40 13q-17 4 -33.5 -7t-30.5 -13q-19 -2 -41 -12q-21 28 -54.5 22t-34.5 -44q-12 -3 -38.5 -9.5t-47.5 -11t-35 -5.5q12 92 37 202q67 16 109.5 29t84.5 29t53 20q26 9 34.5 31t-18.5 43l-10.5 7
t-9.5 6.5t-7.5 4.5t-7 3.5t-6 1.5t-7 0t-6.5 -2.5t-8 -4t-9 -6.5q-23 -16 -115 -50t-115 -22q-20 -4 -34 -25.5t-18 -52.5q-7 -52 -27 -177t-28 -208t-8 -180z" />
    <glyph glyph-name="uni65E0" unicode="&#x65e0;" 
d="M422 542q44 13 154.5 39.5t146.5 31.5q41 6 57 18t12 42q-2 2 -11.5 14.5t-13 16.5t-12.5 13t-16 12t-17.5 6.5t-22.5 2.5t-25 -6q-23 -7 -185 -50q6 16 27 51t31.5 65.5t5.5 62.5q10 6 37.5 15t38.5 20t13 34q1 15 -2 26t-13.5 19.5t-16 12t-23 11.5t-19.5 9
q-17 8 -30 0q-59 -36 -233 -64q-15 -3 -25.5 -15.5t-1.5 -26.5q5 -9 10 -24.5t12 -26t23 -17.5q30 -13 44.5 -14.5t68.5 7.5q-5 -22 -70 -177q-37 -8 -112 -30.5t-86 -25.5q-24 -6 -28.5 -28.5t9.5 -37.5q47 -61 96 -43q4 1 22.5 9t31.5 12q-33 -71 -66.5 -127.5t-77 -122
t-68.5 -106.5q-41 -70 -35 -74q8 -2 27.5 14.5t26.5 17.5q14 7 46.5 39.5t49.5 40.5q20 10 58 63q69 96 162 291zM471 503q-5 -17 -21 -56t-27.5 -77.5t-12.5 -74.5q-5 -132 42 -179.5t183 -51.5q149 -4 214 10.5t110 71.5q20 29 11.5 57.5t-32.5 40.5q-29 16 -36 75
q-3 23 -13 24q-14 2 -17 -27q-4 -41 -9 -82q-23 -29 -86 -41.5t-126.5 -9t-103.5 16.5q-32 10 -42 25q-18 28 5.5 116t50.5 107q15 22 18 44.5t-11.5 40t-47.5 18.5q-28 0 -39 -9t-10 -39z" />
    <glyph glyph-name="uni65E9" unicode="&#x65e9;" 
d="M570 754q22 9 23 47.5t-29 39.5q-23 0 -63 -7.5t-45 -8.5q-15 -2 -21 -11.5t-3 -23t7.5 -24t10.5 -20.5q8 -14 24 -13q53 5 96 21zM618 1018q-118 0 -242 -20q-47 34 -70 17q-42 -33 -26 -184q16 -142 73 -243q32 -57 67 -28q32 6 47 7q-9 -31 -5 -63q-189 -21 -349 -59
q-58 -14 -66.5 -31t24.5 -67q23 -33 47.5 -36.5t71.5 15.5q156 57 273 71q-8 -203 -3 -295q6 -108 19 -112q15 -2 20 26q3 20 34 45t35 42q8 37 9 168.5t2 140.5q196 26 308 2q28 -20 48 -13t31 23.5t14 39.5q1 10 -3.5 19t-15.5 17.5t-20.5 14.5t-24 14t-19.5 11
q-17 10 -42 -2.5t-49 -7.5q-21 5 -222 -14q-4 30 -44 64q25 6 48.5 9.5t32 5.5t23.5 12.5t39 34.5q34 35 56.5 137t22.5 200q0 37 -70 56q-25 6 -43.5 -5.5t-30.5 -11.5zM577 677q-110 -18 -141 -29q-16 37 -26 115.5t-6 132.5q23 7 66.5 16.5t76.5 19.5t58 26q24 7 27 -9
t-1 -60q-3 -60 -54 -212z" />
    <glyph glyph-name="uni65F6" unicode="&#x65f6;" 
d="M314 249q42 38 52.5 79t14.5 144q1 23 1 36q2 65 -3 168.5t2 135.5q3 27 -11 50.5t-23.5 31t-33.5 24.5q-15 10 -38 -7t-35 -14q-25 0 -123 -22q-12 20 -29 21.5t-29 -18.5q-12 -22 -20.5 -50t-12.5 -69.5t-6.5 -68.5t-1.5 -84t1 -75.5t3 -83t3 -68.5q1 -36 23 -96
q14 -37 30 -41t41 15q23 0 41.5 5.5t42 16.5t43.5 17q1 -2 4 -9t4.5 -11t5 -11t6.5 -10.5t7 -8.5t8.5 -6t9.5 -1.5t11 2t12 8.5zM228 573q13 7 12.5 35.5t-14.5 35.5q-9 8 -14.5 11t-15 2.5t-15.5 -3t-26.5 -10t-36.5 -12.5q5 106 11 156q83 29 99 40q23 13 28 6t6 -36
q10 -258 -3 -410q-24 -3 -67.5 -15.5t-65.5 -15.5q-10 97 -9 176q53 10 111 40zM717 182q-5 -16 -68 -11q-48 5 -50 -4q-1 -7 19 -25q14 -12 19 -33t13 -31q5 -4 15 -25t23 -21q12 0 43 20t45 20q101 21 89 365q-5 147 -12 284q29 6 57.5 0t40 -8.5t41.5 14.5q6 4 11 34
q6 59 -46 66q-11 1 -38.5 14t-45.5 3q-21 -6 -24 -7q-1 10 1 43t1 58t-9 33q-14 15 -22.5 22.5t-17.5 14.5t-16 13q-15 15 -47.5 7.5t-28.5 -31.5q22 -121 19 -172q-43 -5 -148.5 -22.5t-130.5 -26.5q-38 -13 -43 -29.5t17 -51.5q19 -29 27 -37t26 -9.5t54 10.5
q124 38 202 48q0 -20 1 -115.5t1.5 -151t-1 -123.5t-4.5 -97q-4 -28 -13 -38zM525 550q-22 19 -58.5 10t-33.5 -38q2 -25 21 -46.5t25 -49.5q3 -13 14.5 -31t23 -29.5t14.5 -8.5q59 11 70 93q-13 52 -76 100z" />
    <glyph glyph-name="uni662F" unicode="&#x662f;" 
d="M588 624q132 31 124 369q-1 37 -70 55q-25 6 -43 -4.5t-31 -10.5q-123 0 -180 -13q-16 12 -27.5 14t-20 -6.5t-13 -19t-11.5 -30.5q-13 -36 -17 -137t9 -142q3 -28 15 -62.5t27 -48.5q8 -11 22.5 -9.5t21.5 12.5q15 4 50 12t58.5 15t48.5 18q8 -12 37 -12zM560 716
q-25 0 -142 -34q-13 39 -13 71q15 7 44 15.5t46 15t33 23.5t20 43q2 18 -15 24.5t-51 -0.5q-1 0 -79 -21q4 20 5.5 37t0.5 21.5t2.5 9t6.5 4t18.5 2.5t33.5 7q62 16 89 33q5 2 8.5 2t6 -1t4 -2.5t3 -5t2 -7.5t1 -10t0.5 -12t0.5 -14.5t1.5 -16.5q3 -42 -26 -184zM553 186
q-3 46 -1 118q41 6 128 24q25 5 33.5 25t-16.5 44q-16 21 -28 23t-34.5 -7.5t-44.5 -10.5q-25 -2 -36 -5l3 73q169 32 209 22q63 -16 70 37q2 18 -6.5 29.5t-18.5 15.5t-29 9.5t-26 8.5q-15 6 -18 3q-47 -17 -165 -36t-171 -32q-220 -56 -234 -62q-24 -11 -27 -24t15 -36
q22 -28 31.5 -31.5t50.5 9.5q118 44 231 69v-213q-59 37 -119 61q61 10 46 67q-8 33 -28 41q-5 5 -18 -1.5t-32.5 -21.5t-36 -29t-36 -31.5t-25.5 -22.5q-96 -84 -194 -202q-20 -25 -16 -31q3 -4 11.5 1t18.5 11.5t14 4.5q8 -1 20 6t18 7q72 33 149 114q36 3 69.5 -2.5
t41.5 -20.5q135 -129 282 -164q82 -20 139 -26q65 -6 74 8q32 50 49 41q15 -7 33 -4t45 -4q39 -12 41 31q0 18 -32 32q-28 12 -180 33.5t-187 31.5q-59 16 -63 17z" />
    <glyph glyph-name="uni6700" unicode="&#x6700;" 
d="M532 909q-37 -5 -75 -14.5t-53 -12.5q-18 -3 -18.5 -17.5t9 -28.5t18.5 -16q12 -12 40 -6q54 11 98 24q19 16 11 45t-30 26zM591 1023q-123 0 -252 -24q-43 38 -66 22q-22 -6 -25 -72t6 -132.5t19 -78.5q6 -40 35 -75q36 -43 55 8q18 1 46 6.5t61 13t43 9.5
q14 -19 26 -21.5t31 15.5q10 11 34.5 15t34.5 16q26 31 41 64t27 91q4 18 9.5 39.5t8 30.5t3.5 21.5t-3 22.5t-12 24q-39 19 -51 23q-30 7 -40 -9q-7 -7 -31 -9zM365 746q-9 14 -13 76.5t-3 96.5q42 21 217 44q57 8 52 4q-12 -64 -34 -121.5t-34 -69.5q-2 3 -5 4t-8.5 0.5
t-11.5 -1.5t-19 -3t-25 -4q-59 -9 -116 -26zM363 184q2 -19 1 -38.5t0 -39t4 -35t11.5 -26.5t22.5 -13q9 -5 35 23.5t23 50.5q-4 20 -5 24q21 4 50 4t59 14q46 21 67 34q74 -71 191 -111q54 -19 64 -3q6 23 23.5 25.5t35.5 -6.5t36.5 -7.5t25.5 22.5q7 9 -8.5 20t-39 22
t-27.5 16q-9 7 -108.5 53t-111.5 61q16 36 26.5 76.5t20 89t16.5 75.5q4 14 -2 23.5t-24 20t-22 14.5q-8 9 -24 7t-28 -7.5t-27 -13.5t-22 -9q-71 -16 -78 -29q-6 -10 11.5 -36.5t30.5 -18.5q7 -1 41 16.5t40 15.5q4 -4 2 -19q-15 -88 -30 -140q-12 21 -25.5 34t-29.5 25
t-26 22q-7 6 -15.5 16t-13.5 14.5t-12 10t-13.5 7.5t-16 1.5t-21.5 -3.5q-15 -4 -16 -33.5t7 -42.5q10 -20 48.5 -50t48.5 -58q9 -25 20 -41q-44 -32 -125 -71q0 23 -1 117.5t-1.5 153t1.5 121.5q148 25 335 40q21 2 52 -3.5t49 -8.5t33.5 8.5t19.5 43.5q2 13 -9.5 23
t-35.5 22t-29 15q-16 9 -29 -4t-64 -12t-322 -39q-203 -31 -380 -84q-48 -15 -54.5 -29t22.5 -55q18 -24 38.5 -28t51.5 10q22 11 44 19q-17 -152 5 -290q-6 -3 -46.5 -19t-46.5 -23q-5 -16 14 -46t31 -34q33 -2 62 12t60.5 37.5t52.5 32.5q32 14 57 34zM255 473q0 2 4 39
q27 12 104 32v-48q-12 1 -32 -3.5t-44 -11t-32 -8.5zM258 226q-6 38 -9 55q22 4 60.5 15.5t51.5 14.5v-44q-77 -27 -103 -41zM244 352q-1 10 0 26.5t1 20.5q74 13 116 32v-49q-15 -4 -64 -16.5t-53 -13.5z" />
    </font>
</defs>
</svg>
